<svg xmlns="http://www.w3.org/2000/svg" width="1200" height="504" viewBox="0 0 1200 504" role="img" aria-labelledby="title desc">
<title id="title">Burner evaluation progress</title><desc id="desc">Time series of evaluation scores recorded at each Burner merge.</desc>
<style>text{font-family:ui-sans-serif,system-ui,-apple-system,BlinkMacSystemFont,"Segoe UI",sans-serif}.title{font-size:22px;font-weight:700;fill:#20242a}.axis{font-size:12px;fill:#59636e}.legend{font-size:13px;fill:#2f3740}.grid{stroke:#d8dee5;stroke-width:1}.plot{fill:#fff;stroke:#b7c0ca}</style>
<rect width="100%" height="100%" fill="#f8fafc" rx="14"/><text x="70" y="32" class="title">Burner evaluation progress</text>
<rect x="70" y="54" width="1098" height="276" class="plot"/><line x1="70" y1="330" x2="1168" y2="330" class="grid"/><text x="58" y="335" text-anchor="end" class="axis">0</text><line x1="70" y1="261" x2="1168" y2="261" class="grid"/><text x="58" y="266" text-anchor="end" class="axis">25</text><line x1="70" y1="192" x2="1168" y2="192" class="grid"/><text x="58" y="197" text-anchor="end" class="axis">50</text><line x1="70" y1="123" x2="1168" y2="123" class="grid"/><text x="58" y="128" text-anchor="end" class="axis">75</text><line x1="70" y1="54" x2="1168" y2="54" class="grid"/><text x="58" y="59" text-anchor="end" class="axis">100</text><polyline points="70.0,54.0 74.3,54.0 78.5,54.0 82.8,54.0 87.1,54.0 91.4,54.0 95.6,54.0 99.9,54.0 104.2,54.0 108.5,54.0 112.7,54.0 117.0,54.0 121.3,54.0 125.5,54.0 129.8,54.0 134.1,54.0 138.4,54.0 142.6,54.0 146.9,54.0 151.2,54.0 155.4,54.0 159.7,54.0 164.0,54.0 168.3,54.0 172.5,54.0 176.8,54.0 181.1,54.0 185.4,54.0 189.6,54.0 193.9,54.0 198.2,54.0 202.4,54.0 206.7,54.0 211.0,54.0 215.3,54.0 219.5,54.0 223.8,54.0 228.1,54.0 232.4,54.0 236.6,54.0 240.9,54.0 245.2,54.0 249.4,54.0 253.7,54.0 258.0,54.0 262.3,54.0 266.5,54.0 270.8,54.0 275.1,54.0 279.3,54.0 283.6,54.0 287.9,54.0 292.2,54.0 296.4,54.0 300.7,54.0 305.0,54.0 309.3,54.0 313.5,54.0 317.8,54.0 322.1,54.0 326.3,54.0 330.6,54.0 334.9,54.0 339.2,54.0 343.4,54.0 347.7,54.0 352.0,54.0 356.2,54.0 360.5,54.0 364.8,54.0 369.1,54.0 373.3,54.0 377.6,54.0 381.9,54.0 386.2,54.0 390.4,54.0 394.7,54.0 399.0,54.0 403.2,54.0 407.5,54.0 411.8,54.0 416.1,54.0 420.3,54.0 424.6,54.0 428.9,54.0 433.2,54.0 437.4,54.0 441.7,54.0 446.0,54.0 450.2,54.0 454.5,54.0 458.8,54.0 463.1,54.0 467.3,54.0 471.6,54.0 475.9,54.0 480.1,54.0 484.4,54.0 488.7,54.0 493.0,54.0 497.2,54.0 501.5,54.0 505.8,54.0 510.1,54.0 514.3,54.0 518.6,54.0 522.9,54.0 527.1,54.0 531.4,54.0 535.7,54.0 540.0,54.0 544.2,54.0 548.5,54.0 552.8,54.0 557.1,54.0 561.3,54.0 565.6,54.0 569.9,54.0 574.1,54.0 578.4,54.0 582.7,54.0 587.0,54.0 591.2,54.0 595.5,54.0 599.8,54.0 604.0,54.0 608.3,54.0 612.6,54.0 616.9,54.0 621.1,54.0 625.4,54.0 629.7,54.0 634.0,54.0 638.2,54.0 642.5,54.0 646.8,54.0 651.0,54.0 655.3,54.0 659.6,54.0 663.9,54.0 668.1,54.0 672.4,54.0 676.7,54.0 680.9,54.0 685.2,54.0 689.5,54.0 693.8,54.0 698.0,54.0 702.3,54.0 706.6,54.0 710.9,54.0 715.1,54.0 719.4,54.0 723.7,54.0 727.9,54.0 732.2,54.0 736.5,54.0 740.8,54.0 745.0,54.0 749.3,54.0 753.6,54.0 757.9,54.0 762.1,54.0 766.4,54.0 770.7,54.0 774.9,54.0 779.2,54.0 783.5,54.0 787.8,54.0 792.0,54.0 796.3,54.0 800.6,54.0 804.8,54.0 809.1,54.0 813.4,54.0 817.7,54.0 821.9,54.0 826.2,54.0 830.5,54.0 834.8,54.0 839.0,54.0 843.3,54.0 847.6,54.0 851.8,54.0 856.1,54.0 860.4,54.0 864.7,54.0 868.9,54.0 873.2,54.0 877.5,54.0 881.8,54.0 886.0,54.0 890.3,54.0 894.6,54.0 898.8,54.0 903.1,54.0 907.4,54.0 911.7,54.0 915.9,54.0 920.2,54.0 924.5,54.0 928.7,54.0 933.0,54.0 937.3,54.0 941.6,54.0 945.8,54.0 950.1,54.0 954.4,54.0 958.7,54.0 962.9,54.0 967.2,54.0 971.5,54.0 975.7,54.0 980.0,54.0 984.3,54.0 988.6,54.0 992.8,54.0 997.1,54.0 1001.4,54.0 1005.6,54.0 1009.9,54.0 1014.2,54.0 1018.5,54.0 1022.7,54.0 1027.0,54.0 1031.3,54.0 1035.6,54.0 1039.8,54.0 1044.1,54.0 1048.4,54.0 1052.6,54.0 1056.9,54.0 1061.2,54.0 1065.5,54.0 1069.7,54.0 1074.0,54.0 1078.3,54.0 1082.6,54.0 1086.8,54.0 1091.1,54.0 1095.4,54.0 1099.6,54.0 1103.9,54.0 1108.2,54.0 1112.5,54.0 1116.7,54.0 1121.0,54.0 1125.3,54.0 1129.5,54.0 1133.8,54.0 1138.1,54.0 1142.4,54.0 1146.6,54.0 1150.9,54.0 1155.2,54.0 1159.5,54.0 1163.7,54.0 1168.0,54.0" fill="none" stroke="#ff6b35" stroke-width="3" stroke-linejoin="round" stroke-linecap="round"/><polyline points="70.0,222.4 74.3,214.1 78.5,214.1 82.8,172.7 87.1,172.7 91.4,161.6 95.6,161.6 99.9,161.6 104.2,156.1 108.5,197.5 112.7,197.5 117.0,197.5 121.3,186.5 125.5,183.7 129.8,183.7 134.1,192.0 138.4,172.7 142.6,181.0 146.9,172.7 151.2,172.7 155.4,169.9 159.7,167.2 164.0,158.9 168.3,167.2 172.5,158.9 176.8,158.9 181.1,156.1 185.4,156.1 189.6,150.6 193.9,156.1 198.2,142.3 202.4,142.3 206.7,142.3 211.0,142.3 215.3,142.3 219.5,142.3 223.8,142.3 228.1,150.6 232.4,150.6 236.6,150.6 240.9,145.1 245.2,145.1 249.4,134.0 253.7,134.0 258.0,134.0 262.3,134.0 266.5,125.8 270.8,114.7 275.1,123.0 279.3,117.5 283.6,114.7 287.9,114.7 292.2,112.0 296.4,109.2 300.7,114.7 305.0,109.2 309.3,109.2 313.5,109.2 317.8,109.2 322.1,109.2 326.3,109.2 330.6,109.2 334.9,109.2 339.2,109.2 343.4,109.2 347.7,109.2 352.0,109.2 356.2,109.2 360.5,109.2 364.8,109.2 369.1,112.0 373.3,109.2 377.6,109.2 381.9,106.4 386.2,106.4 390.4,106.4 394.7,106.4 399.0,106.4 403.2,106.4 407.5,103.7 411.8,103.7 416.1,103.7 420.3,103.7 424.6,103.7 428.9,103.7 433.2,103.7 437.4,100.9 441.7,100.9 446.0,100.9 450.2,100.9 454.5,100.9 458.8,95.4 463.1,95.4 467.3,95.4 471.6,98.2 475.9,95.4 480.1,95.4 484.4,92.6 488.7,87.1 493.0,87.1 497.2,87.1 501.5,87.1 505.8,87.1 510.1,89.9 514.3,89.9 518.6,89.9 522.9,89.9 527.1,87.1 531.4,87.1 535.7,89.9 540.0,89.9 544.2,89.9 548.5,87.1 552.8,81.6 557.1,84.4 561.3,81.6 565.6,81.6 569.9,81.6 574.1,84.4 578.4,81.6 582.7,81.6 587.0,81.6 591.2,81.6 595.5,81.6 599.8,84.4 604.0,81.6 608.3,84.4 612.6,81.6 616.9,81.6 621.1,84.4 625.4,81.6 629.7,81.6 634.0,81.6 638.2,81.6 642.5,81.6 646.8,81.6 651.0,81.6 655.3,81.6 659.6,81.6 663.9,81.6 668.1,84.4 672.4,76.1 676.7,78.8 680.9,78.8 685.2,78.8 689.5,78.8 693.8,76.1 698.0,76.1 702.3,76.1 706.6,76.1 710.9,78.8 715.1,78.8 719.4,78.8 723.7,78.8 727.9,76.1 732.2,76.1 736.5,76.1 740.8,76.1 745.0,78.8 749.3,76.1 753.6,76.1 757.9,76.1 762.1,76.1 766.4,76.1 770.7,76.1 774.9,76.1 779.2,76.1 783.5,76.1 787.8,78.8 792.0,76.1 796.3,76.1 800.6,76.1 804.8,76.1 809.1,76.1 813.4,76.1 817.7,76.1 821.9,76.1 826.2,70.6 830.5,70.6 834.8,70.6 839.0,70.6 843.3,70.6 847.6,73.3 851.8,70.6 856.1,73.3 860.4,67.8 864.7,65.0 868.9,65.0 873.2,65.0 877.5,65.0 881.8,65.0 886.0,65.0 890.3,65.0 894.6,65.0 898.8,65.0 903.1,65.0 907.4,67.8 911.7,67.8 915.9,65.0 920.2,65.0 924.5,65.0 928.7,65.0 933.0,65.0 937.3,65.0 941.6,65.0 945.8,65.0 950.1,65.0 954.4,65.0 958.7,67.8 962.9,65.0 967.2,65.0 971.5,65.0 975.7,65.0 980.0,65.0 984.3,67.8 988.6,65.0 992.8,65.0 997.1,65.0 1001.4,65.0 1005.6,65.0 1009.9,65.0 1014.2,65.0 1018.5,62.3 1022.7,62.3 1027.0,65.0 1031.3,65.0 1035.6,65.0 1039.8,65.0 1044.1,65.0 1048.4,65.0 1052.6,65.0 1056.9,59.5 1061.2,59.5 1065.5,59.5 1069.7,62.3 1074.0,59.5 1078.3,59.5 1082.6,54.0 1086.8,54.0 1091.1,54.0 1095.4,54.0 1099.6,54.0 1103.9,56.8 1108.2,56.8 1112.5,56.8 1116.7,54.0 1121.0,59.5 1125.3,56.8 1129.5,56.8 1133.8,56.8 1138.1,56.8 1142.4,54.0 1146.6,54.0 1150.9,54.0 1155.2,56.8 1159.5,54.0 1163.7,54.0 1168.0,54.0" fill="none" stroke="#7c5cff" stroke-width="3" stroke-linejoin="round" stroke-linecap="round"/><polyline points="70.0,225.1 74.3,211.3 78.5,241.7 82.8,236.2 87.1,225.1 91.4,205.8 95.6,219.6 99.9,208.6 104.2,186.5 108.5,197.5 112.7,197.5 117.0,214.1 121.3,214.1 125.5,197.5 129.8,197.5 134.1,203.0 138.4,197.5 142.6,211.3 146.9,211.3 151.2,205.8 155.4,205.8 159.7,197.5 164.0,192.0 168.3,208.6 172.5,208.6 176.8,197.5 181.1,197.5 185.4,205.8 189.6,197.5 193.9,203.0 198.2,203.0 202.4,203.0 206.7,200.3 211.0,181.0 215.3,175.4 219.5,197.5 223.8,192.0 228.1,203.0 232.4,200.3 236.6,186.5 240.9,164.4 245.2,181.0 249.4,181.0 253.7,178.2 258.0,147.8 262.3,169.9 266.5,169.9 270.8,169.9 275.1,169.9 279.3,164.4 283.6,175.4 287.9,175.4 292.2,156.1 296.4,156.1 300.7,161.6 305.0,161.6 309.3,169.9 313.5,164.4 317.8,175.4 322.1,169.9 326.3,169.9 330.6,169.9 334.9,153.4 339.2,150.6 343.4,169.9 347.7,164.4 352.0,158.9 356.2,156.1 360.5,169.9 364.8,164.4 369.1,169.9 373.3,167.2 377.6,158.9 381.9,158.9 386.2,169.9 390.4,164.4 394.7,164.4 399.0,164.4 403.2,169.9 407.5,169.9 411.8,164.4 416.1,161.6 420.3,169.9 424.6,167.2 428.9,175.4 433.2,167.2 437.4,161.6 441.7,161.6 446.0,169.9 450.2,167.2 454.5,169.9 458.8,169.9 463.1,169.9 467.3,164.4 471.6,158.9 475.9,158.9 480.1,156.1 484.4,172.7 488.7,172.7 493.0,178.2 497.2,178.2 501.5,169.9 505.8,167.2 510.1,169.9 514.3,167.2 518.6,164.4 522.9,161.6 527.1,169.9 531.4,167.2 535.7,158.9 540.0,156.1 544.2,156.1 548.5,169.9 552.8,167.2 557.1,158.9 561.3,153.4 565.6,169.9 569.9,167.2 574.1,147.8 578.4,145.1 582.7,169.9 587.0,167.2 591.2,153.4 595.5,150.6 599.8,153.4 604.0,153.4 608.3,169.9 612.6,167.2 616.9,164.4 621.1,161.6 625.4,158.9 629.7,175.4 634.0,172.7 638.2,169.9 642.5,167.2 646.8,158.9 651.0,156.1 655.3,169.9 659.6,167.2 663.9,164.4 668.1,164.4 672.4,164.4 676.7,156.1 680.9,153.4 685.2,169.9 689.5,167.2 693.8,153.4 698.0,150.6 702.3,145.1 706.6,142.3 710.9,169.9 715.1,167.2 719.4,158.9 723.7,158.9 727.9,181.0 732.2,178.2 736.5,169.9 740.8,167.2 745.0,175.4 749.3,172.7 753.6,169.9 757.9,167.2 762.1,169.9 766.4,167.2 770.7,169.9 774.9,167.2 779.2,169.9 783.5,167.2 787.8,175.4 792.0,172.7 796.3,161.6 800.6,161.6 804.8,169.9 809.1,167.2 813.4,161.6 817.7,158.9 821.9,153.4 826.2,153.4 830.5,169.9 834.8,167.2 839.0,161.6 843.3,158.9 847.6,158.9 851.8,156.1 856.1,153.4 860.4,153.4 864.7,161.6 868.9,161.6 873.2,161.6 877.5,158.9 881.8,169.9 886.0,167.2 890.3,142.3 894.6,139.6 898.8,147.8 903.1,145.1 907.4,153.4 911.7,150.6 915.9,161.6 920.2,158.9 924.5,161.6 928.7,158.9 933.0,156.1 937.3,153.4 941.6,156.1 945.8,153.4 950.1,169.9 954.4,167.2 958.7,167.2 962.9,164.4 967.2,158.9 971.5,156.1 975.7,161.6 980.0,158.9 984.3,161.6 988.6,158.9 992.8,167.2 997.1,164.4 1001.4,169.9 1005.6,167.2 1009.9,169.9 1014.2,167.2 1018.5,153.4 1022.7,150.6 1027.0,161.6 1031.3,158.9 1035.6,153.4 1039.8,150.6 1044.1,169.9 1048.4,167.2 1052.6,158.9 1056.9,158.9 1061.2,169.9 1065.5,167.2 1069.7,161.6 1074.0,158.9 1078.3,156.1 1082.6,156.1 1086.8,161.6 1091.1,158.9 1095.4,158.9 1099.6,156.1 1103.9,161.6 1108.2,158.9 1112.5,161.6 1116.7,158.9 1121.0,153.4 1125.3,150.6 1129.5,158.9 1133.8,158.9 1138.1,169.9 1142.4,169.9 1146.6,175.4 1150.9,172.7 1155.2,153.4 1159.5,150.6 1163.7,161.6 1168.0,158.9" fill="none" stroke="#00a7a5" stroke-width="3" stroke-linejoin="round" stroke-linecap="round"/><polyline points="70.0,62.3 74.3,62.3 78.5,67.8 82.8,128.5 87.1,120.2 91.4,125.8 95.6,125.8 99.9,125.8 104.2,117.5 108.5,120.2 112.7,139.6 117.0,120.2 121.3,120.2 125.5,131.3 129.8,136.8 134.1,131.3 138.4,134.0 142.6,134.0 146.9,134.0 151.2,139.6 155.4,78.8 159.7,59.5 164.0,59.5 168.3,62.3 172.5,62.3 176.8,67.8 181.1,67.8 185.4,62.3 189.6,62.3 193.9,62.3 198.2,62.3 202.4,54.0 206.7,54.0 211.0,59.5 215.3,59.5 219.5,54.0 223.8,54.0 228.1,59.5 232.4,59.5 236.6,59.5 240.9,56.8 245.2,59.5 249.4,59.5 253.7,59.5 258.0,59.5 262.3,59.5 266.5,59.5 270.8,59.5 275.1,56.8 279.3,56.8 283.6,62.3 287.9,62.3 292.2,56.8 296.4,56.8 300.7,54.0 305.0,54.0 309.3,59.5 313.5,56.8 317.8,54.0 322.1,54.0 326.3,65.0 330.6,65.0 334.9,56.8 339.2,56.8 343.4,56.8 347.7,56.8 352.0,54.0 356.2,54.0 360.5,54.0 364.8,54.0 369.1,59.5 373.3,59.5 377.6,54.0 381.9,54.0 386.2,59.5 390.4,59.5 394.7,54.0 399.0,54.0 403.2,59.5 407.5,59.5 411.8,65.0 416.1,65.0 420.3,56.8 424.6,56.8 428.9,59.5 433.2,59.5 437.4,59.5 441.7,59.5 446.0,54.0 450.2,54.0 454.5,54.0 458.8,54.0 463.1,62.3 467.3,62.3 471.6,54.0 475.9,54.0 480.1,54.0 484.4,54.0 488.7,54.0 493.0,56.8 497.2,56.8 501.5,56.8 505.8,56.8 510.1,56.8 514.3,56.8 518.6,59.5 522.9,59.5 527.1,59.5 531.4,59.5 535.7,54.0 540.0,54.0 544.2,54.0 548.5,54.0 552.8,54.0 557.1,54.0 561.3,54.0 565.6,59.5 569.9,59.5 574.1,54.0 578.4,54.0 582.7,54.0 587.0,54.0 591.2,54.0 595.5,54.0 599.8,54.0 604.0,54.0 608.3,54.0 612.6,54.0 616.9,54.0 621.1,54.0 625.4,54.0 629.7,54.0 634.0,54.0 638.2,54.0 642.5,54.0 646.8,54.0 651.0,54.0 655.3,54.0 659.6,54.0 663.9,54.0 668.1,54.0 672.4,54.0 676.7,54.0 680.9,54.0 685.2,54.0 689.5,54.0 693.8,54.0 698.0,54.0 702.3,54.0 706.6,54.0 710.9,54.0 715.1,54.0 719.4,56.8 723.7,56.8 727.9,54.0 732.2,54.0 736.5,54.0 740.8,54.0 745.0,54.0 749.3,54.0 753.6,54.0 757.9,54.0 762.1,54.0 766.4,54.0 770.7,54.0 774.9,54.0 779.2,54.0 783.5,54.0 787.8,54.0 792.0,54.0 796.3,54.0 800.6,54.0 804.8,54.0 809.1,54.0 813.4,54.0 817.7,54.0 821.9,54.0 826.2,54.0 830.5,54.0 834.8,54.0 839.0,54.0 843.3,54.0 847.6,62.3 851.8,62.3 856.1,54.0 860.4,54.0 864.7,56.8 868.9,56.8 873.2,54.0 877.5,54.0 881.8,54.0 886.0,54.0 890.3,54.0 894.6,54.0 898.8,54.0 903.1,54.0 907.4,54.0 911.7,54.0 915.9,59.5 920.2,67.8 924.5,54.0 928.7,54.0 933.0,65.0 937.3,65.0 941.6,54.0 945.8,54.0 950.1,54.0 954.4,62.3 958.7,54.0 962.9,54.0 967.2,54.0 971.5,54.0 975.7,54.0 980.0,54.0 984.3,56.8 988.6,56.8 992.8,54.0 997.1,54.0 1001.4,54.0 1005.6,54.0 1009.9,54.0 1014.2,54.0 1018.5,54.0 1022.7,54.0 1027.0,54.0 1031.3,54.0 1035.6,54.0 1039.8,54.0 1044.1,54.0 1048.4,54.0 1052.6,54.0 1056.9,54.0 1061.2,54.0 1065.5,54.0 1069.7,54.0 1074.0,54.0 1078.3,54.0 1082.6,54.0 1086.8,56.8 1091.1,56.8 1095.4,54.0 1099.6,54.0 1103.9,54.0 1108.2,62.3 1112.5,62.3 1116.7,62.3 1121.0,59.5 1125.3,59.5 1129.5,54.0 1133.8,54.0 1138.1,54.0 1142.4,54.0 1146.6,54.0 1150.9,54.0 1155.2,54.0 1159.5,54.0 1163.7,54.0 1168.0,54.0" fill="none" stroke="#e6a700" stroke-width="3" stroke-linejoin="round" stroke-linecap="round"/><polyline points="108.5,330.0 112.7,54.0 117.0,54.0 121.3,54.0 125.5,54.0 129.8,54.0 134.1,54.0 138.4,54.0 142.6,54.0 146.9,54.0 151.2,54.0 155.4,54.0 159.7,54.0 164.0,54.0 168.3,54.0 172.5,54.0 176.8,54.0 181.1,54.0 185.4,54.0 189.6,54.0 193.9,54.0 198.2,54.0 202.4,54.0 206.7,54.0 211.0,54.0 215.3,54.0 219.5,54.0 223.8,54.0 228.1,54.0 232.4,54.0 236.6,54.0 240.9,54.0 245.2,54.0 249.4,54.0 253.7,54.0 258.0,54.0 262.3,54.0 266.5,54.0 270.8,54.0 275.1,54.0 279.3,54.0 283.6,54.0 287.9,54.0 292.2,54.0 296.4,54.0 300.7,54.0 305.0,54.0 309.3,54.0 313.5,54.0 317.8,54.0 322.1,54.0 326.3,54.0 330.6,54.0 334.9,54.0 339.2,54.0 343.4,54.0 347.7,54.0 352.0,54.0 356.2,54.0 360.5,54.0 364.8,54.0 369.1,54.0 373.3,54.0 377.6,54.0 381.9,54.0 386.2,54.0 390.4,54.0 394.7,54.0 399.0,54.0 403.2,54.0 407.5,54.0 411.8,54.0 416.1,54.0 420.3,54.0 424.6,54.0 428.9,54.0 433.2,54.0 437.4,54.0 441.7,54.0 446.0,54.0 450.2,54.0 454.5,54.0 458.8,54.0 463.1,54.0 467.3,54.0 471.6,54.0 475.9,54.0 480.1,54.0 484.4,54.0 488.7,54.0 493.0,54.0 497.2,54.0 501.5,54.0 505.8,54.0 510.1,54.0 514.3,54.0 518.6,54.0 522.9,54.0 527.1,54.0 531.4,54.0 535.7,54.0 540.0,54.0 544.2,54.0 548.5,54.0 552.8,54.0 557.1,54.0 561.3,54.0 565.6,54.0 569.9,54.0 574.1,54.0 578.4,54.0 582.7,54.0 587.0,54.0 591.2,54.0 595.5,54.0 599.8,54.0 604.0,54.0 608.3,54.0 612.6,54.0 616.9,54.0 621.1,54.0 625.4,54.0 629.7,54.0 634.0,54.0 638.2,54.0 642.5,54.0 646.8,54.0 651.0,54.0 655.3,54.0 659.6,54.0 663.9,54.0 668.1,54.0 672.4,54.0 676.7,54.0 680.9,54.0 685.2,54.0 689.5,54.0 693.8,54.0 698.0,54.0 702.3,54.0 706.6,54.0 710.9,54.0 715.1,54.0 719.4,54.0 723.7,54.0 727.9,54.0 732.2,54.0 736.5,54.0 740.8,54.0 745.0,54.0 749.3,54.0 753.6,54.0 757.9,54.0 762.1,54.0 766.4,54.0 770.7,54.0 774.9,54.0 779.2,54.0 783.5,54.0 787.8,54.0 792.0,54.0 796.3,54.0 800.6,54.0 804.8,54.0 809.1,54.0 813.4,54.0 817.7,54.0 821.9,54.0 826.2,54.0 830.5,54.0 834.8,54.0 839.0,54.0 843.3,54.0 847.6,54.0 851.8,54.0 856.1,54.0 860.4,54.0 864.7,54.0 868.9,54.0 873.2,54.0 877.5,54.0 881.8,54.0 886.0,54.0 890.3,54.0 894.6,54.0 898.8,54.0 903.1,54.0 907.4,54.0 911.7,54.0 915.9,54.0 920.2,54.0 924.5,54.0 928.7,54.0 933.0,54.0 937.3,54.0 941.6,54.0 945.8,54.0 950.1,54.0 954.4,54.0 958.7,54.0 962.9,54.0 967.2,54.0 971.5,54.0 975.7,54.0 980.0,54.0 984.3,54.0 988.6,54.0 992.8,54.0 997.1,54.0 1001.4,54.0 1005.6,54.0 1009.9,54.0 1014.2,54.0 1018.5,54.0 1022.7,54.0 1027.0,54.0 1031.3,54.0 1035.6,54.0 1039.8,54.0 1044.1,54.0 1048.4,54.0 1052.6,54.0 1056.9,54.0 1061.2,54.0 1065.5,54.0 1069.7,54.0 1074.0,54.0 1078.3,54.0 1082.6,54.0 1086.8,54.0 1091.1,54.0 1095.4,54.0 1099.6,54.0 1103.9,54.0 1108.2,54.0 1112.5,54.0 1116.7,54.0 1121.0,54.0 1125.3,54.0 1129.5,54.0 1133.8,54.0 1138.1,54.0 1142.4,54.0 1146.6,54.0 1150.9,54.0 1155.2,54.0 1159.5,54.0 1163.7,54.0 1168.0,54.0" fill="none" stroke="#d94f8a" stroke-width="3" stroke-linejoin="round" stroke-linecap="round"/><text x="70" y="358" text-anchor="middle" class="axis">base 7f3a2c0</text><text x="228.07782101167314" y="358" text-anchor="middle" class="axis">base e84faa8</text><text x="381.8832684824903" y="358" text-anchor="middle" class="axis">PR #48</text><text x="539.9610894941634" y="358" text-anchor="middle" class="axis">PR #83</text><text x="698.0389105058365" y="358" text-anchor="middle" class="axis">PR #103</text><text x="856.1167315175097" y="358" text-anchor="middle" class="axis">base 1bbe763</text><text x="1009.9221789883268" y="358" text-anchor="middle" class="axis">base 067355a</text><text x="1168" y="358" text-anchor="middle" class="axis">PR #168</text><line x1="70" y1="396" x2="96" y2="396" stroke="#ff6b35" stroke-width="4"/><text x="106" y="401" class="legend">Correctness</text><line x1="619" y1="396" x2="645" y2="396" stroke="#7c5cff" stroke-width="4"/><text x="655" y="401" class="legend">Coverage and speed vs FlashAttention</text><line x1="70" y1="424" x2="96" y2="424" stroke="#00a7a5" stroke-width="4"/><text x="106" y="429" class="legend">FlashAttention API compatibility</text><line x1="619" y1="424" x2="645" y2="424" stroke="#e6a700" stroke-width="4"/><text x="655" y="429" class="legend">README documents every kernel and benchmark</text><line x1="70" y1="452" x2="96" y2="452" stroke="#d94f8a" stroke-width="4"/><text x="106" y="457" class="legend">vLLM drop-in compatibility</text>
</svg>
