<svg xmlns="http://www.w3.org/2000/svg" width="1200" height="504" viewBox="0 0 1200 504" role="img" aria-labelledby="title desc">
<title id="title">Burner evaluation progress</title><desc id="desc">Time series of evaluation scores recorded at each Burner merge.</desc>
<style>text{font-family:ui-sans-serif,system-ui,-apple-system,BlinkMacSystemFont,"Segoe UI",sans-serif}.title{font-size:22px;font-weight:700;fill:#20242a}.axis{font-size:12px;fill:#59636e}.legend{font-size:13px;fill:#2f3740}.grid{stroke:#d8dee5;stroke-width:1}.plot{fill:#fff;stroke:#b7c0ca}</style>
<rect width="100%" height="100%" fill="#f8fafc" rx="14"/><text x="70" y="32" class="title">Burner evaluation progress</text>
<rect x="70" y="54" width="1098" height="276" class="plot"/><line x1="70" y1="330" x2="1168" y2="330" class="grid"/><text x="58" y="335" text-anchor="end" class="axis">0</text><line x1="70" y1="261" x2="1168" y2="261" class="grid"/><text x="58" y="266" text-anchor="end" class="axis">25</text><line x1="70" y1="192" x2="1168" y2="192" class="grid"/><text x="58" y="197" text-anchor="end" class="axis">50</text><line x1="70" y1="123" x2="1168" y2="123" class="grid"/><text x="58" y="128" text-anchor="end" class="axis">75</text><line x1="70" y1="54" x2="1168" y2="54" class="grid"/><text x="58" y="59" text-anchor="end" class="axis">100</text><polyline points="70.0,54.0 77.1,54.0 84.2,54.0 91.3,54.0 98.3,54.0 105.4,54.0 112.5,54.0 119.6,54.0 126.7,54.0 133.8,54.0 140.8,54.0 147.9,54.0 155.0,54.0 162.1,54.0 169.2,54.0 176.3,54.0 183.3,54.0 190.4,54.0 197.5,54.0 204.6,54.0 211.7,54.0 218.8,54.0 225.8,54.0 232.9,54.0 240.0,54.0 247.1,54.0 254.2,54.0 261.3,54.0 268.3,54.0 275.4,54.0 282.5,54.0 289.6,54.0 296.7,54.0 303.8,54.0 310.9,54.0 317.9,54.0 325.0,54.0 332.1,54.0 339.2,54.0 346.3,54.0 353.4,54.0 360.4,54.0 367.5,54.0 374.6,54.0 381.7,54.0 388.8,54.0 395.9,54.0 402.9,54.0 410.0,54.0 417.1,54.0 424.2,54.0 431.3,54.0 438.4,54.0 445.4,54.0 452.5,54.0 459.6,54.0 466.7,54.0 473.8,54.0 480.9,54.0 487.9,54.0 495.0,54.0 502.1,54.0 509.2,54.0 516.3,54.0 523.4,54.0 530.5,54.0 537.5,54.0 544.6,54.0 551.7,54.0 558.8,54.0 565.9,54.0 573.0,54.0 580.0,54.0 587.1,54.0 594.2,54.0 601.3,54.0 608.4,54.0 615.5,54.0 622.5,54.0 629.6,54.0 636.7,54.0 643.8,54.0 650.9,54.0 658.0,54.0 665.0,54.0 672.1,54.0 679.2,54.0 686.3,54.0 693.4,54.0 700.5,54.0 707.5,54.0 714.6,54.0 721.7,54.0 728.8,54.0 735.9,54.0 743.0,54.0 750.1,54.0 757.1,54.0 764.2,54.0 771.3,54.0 778.4,54.0 785.5,54.0 792.6,54.0 799.6,54.0 806.7,54.0 813.8,54.0 820.9,54.0 828.0,54.0 835.1,54.0 842.1,54.0 849.2,54.0 856.3,54.0 863.4,54.0 870.5,54.0 877.6,54.0 884.6,54.0 891.7,54.0 898.8,54.0 905.9,54.0 913.0,54.0 920.1,54.0 927.1,54.0 934.2,54.0 941.3,54.0 948.4,54.0 955.5,54.0 962.6,54.0 969.7,54.0 976.7,54.0 983.8,54.0 990.9,54.0 998.0,54.0 1005.1,54.0 1012.2,54.0 1019.2,54.0 1026.3,54.0 1033.4,54.0 1040.5,54.0 1047.6,54.0 1054.7,54.0 1061.7,54.0 1068.8,54.0 1075.9,54.0 1083.0,54.0 1090.1,54.0 1097.2,54.0 1104.2,54.0 1111.3,54.0 1118.4,54.0 1125.5,54.0 1132.6,54.0 1139.7,54.0 1146.7,54.0 1153.8,54.0 1160.9,54.0 1168.0,54.0" fill="none" stroke="#ff6b35" stroke-width="3" stroke-linejoin="round" stroke-linecap="round"/><polyline points="70.0,222.4 77.1,214.1 84.2,214.1 91.3,172.7 98.3,172.7 105.4,161.6 112.5,161.6 119.6,161.6 126.7,156.1 133.8,197.5 140.8,197.5 147.9,197.5 155.0,186.5 162.1,183.7 169.2,183.7 176.3,192.0 183.3,172.7 190.4,181.0 197.5,172.7 204.6,172.7 211.7,169.9 218.8,167.2 225.8,158.9 232.9,167.2 240.0,158.9 247.1,158.9 254.2,156.1 261.3,156.1 268.3,150.6 275.4,156.1 282.5,142.3 289.6,142.3 296.7,142.3 303.8,142.3 310.9,142.3 317.9,142.3 325.0,142.3 332.1,150.6 339.2,150.6 346.3,150.6 353.4,145.1 360.4,145.1 367.5,134.0 374.6,134.0 381.7,134.0 388.8,134.0 395.9,125.8 402.9,114.7 410.0,123.0 417.1,117.5 424.2,114.7 431.3,114.7 438.4,112.0 445.4,109.2 452.5,114.7 459.6,109.2 466.7,109.2 473.8,109.2 480.9,109.2 487.9,109.2 495.0,109.2 502.1,109.2 509.2,109.2 516.3,109.2 523.4,109.2 530.5,109.2 537.5,109.2 544.6,109.2 551.7,109.2 558.8,109.2 565.9,112.0 573.0,109.2 580.0,109.2 587.1,106.4 594.2,106.4 601.3,106.4 608.4,106.4 615.5,106.4 622.5,106.4 629.6,103.7 636.7,103.7 643.8,103.7 650.9,103.7 658.0,103.7 665.0,103.7 672.1,103.7 679.2,100.9 686.3,100.9 693.4,100.9 700.5,100.9 707.5,100.9 714.6,95.4 721.7,95.4 728.8,95.4 735.9,98.2 743.0,95.4 750.1,95.4 757.1,92.6 764.2,87.1 771.3,87.1 778.4,87.1 785.5,87.1 792.6,87.1 799.6,89.9 806.7,89.9 813.8,89.9 820.9,89.9 828.0,87.1 835.1,87.1 842.1,89.9 849.2,89.9 856.3,89.9 863.4,87.1 870.5,81.6 877.6,84.4 884.6,81.6 891.7,81.6 898.8,81.6 905.9,84.4 913.0,81.6 920.1,81.6 927.1,81.6 934.2,81.6 941.3,81.6 948.4,84.4 955.5,81.6 962.6,84.4 969.7,81.6 976.7,81.6 983.8,84.4 990.9,81.6 998.0,81.6 1005.1,81.6 1012.2,81.6 1019.2,81.6 1026.3,81.6 1033.4,81.6 1040.5,81.6 1047.6,81.6 1054.7,81.6 1061.7,84.4 1068.8,76.1 1075.9,78.8 1083.0,78.8 1090.1,78.8 1097.2,78.8 1104.2,76.1 1111.3,76.1 1118.4,76.1 1125.5,76.1 1132.6,78.8 1139.7,78.8 1146.7,78.8 1153.8,78.8 1160.9,76.1 1168.0,76.1" fill="none" stroke="#7c5cff" stroke-width="3" stroke-linejoin="round" stroke-linecap="round"/><polyline points="70.0,225.1 77.1,211.3 84.2,241.7 91.3,236.2 98.3,225.1 105.4,205.8 112.5,219.6 119.6,208.6 126.7,186.5 133.8,197.5 140.8,197.5 147.9,214.1 155.0,214.1 162.1,197.5 169.2,197.5 176.3,203.0 183.3,197.5 190.4,211.3 197.5,211.3 204.6,205.8 211.7,205.8 218.8,197.5 225.8,192.0 232.9,208.6 240.0,208.6 247.1,197.5 254.2,197.5 261.3,205.8 268.3,197.5 275.4,203.0 282.5,203.0 289.6,203.0 296.7,200.3 303.8,181.0 310.9,175.4 317.9,197.5 325.0,192.0 332.1,203.0 339.2,200.3 346.3,186.5 353.4,164.4 360.4,181.0 367.5,181.0 374.6,178.2 381.7,147.8 388.8,169.9 395.9,169.9 402.9,169.9 410.0,169.9 417.1,164.4 424.2,175.4 431.3,175.4 438.4,156.1 445.4,156.1 452.5,161.6 459.6,161.6 466.7,169.9 473.8,164.4 480.9,175.4 487.9,169.9 495.0,169.9 502.1,169.9 509.2,153.4 516.3,150.6 523.4,169.9 530.5,164.4 537.5,158.9 544.6,156.1 551.7,169.9 558.8,164.4 565.9,169.9 573.0,167.2 580.0,158.9 587.1,158.9 594.2,169.9 601.3,164.4 608.4,164.4 615.5,164.4 622.5,169.9 629.6,169.9 636.7,164.4 643.8,161.6 650.9,169.9 658.0,167.2 665.0,175.4 672.1,167.2 679.2,161.6 686.3,161.6 693.4,169.9 700.5,167.2 707.5,169.9 714.6,169.9 721.7,169.9 728.8,164.4 735.9,158.9 743.0,158.9 750.1,156.1 757.1,172.7 764.2,172.7 771.3,178.2 778.4,178.2 785.5,169.9 792.6,167.2 799.6,169.9 806.7,167.2 813.8,164.4 820.9,161.6 828.0,169.9 835.1,167.2 842.1,158.9 849.2,156.1 856.3,156.1 863.4,169.9 870.5,167.2 877.6,158.9 884.6,153.4 891.7,169.9 898.8,167.2 905.9,147.8 913.0,145.1 920.1,169.9 927.1,167.2 934.2,153.4 941.3,150.6 948.4,153.4 955.5,153.4 962.6,169.9 969.7,167.2 976.7,164.4 983.8,161.6 990.9,158.9 998.0,175.4 1005.1,172.7 1012.2,169.9 1019.2,167.2 1026.3,158.9 1033.4,156.1 1040.5,169.9 1047.6,167.2 1054.7,164.4 1061.7,164.4 1068.8,164.4 1075.9,156.1 1083.0,153.4 1090.1,169.9 1097.2,167.2 1104.2,153.4 1111.3,150.6 1118.4,145.1 1125.5,142.3 1132.6,169.9 1139.7,167.2 1146.7,158.9 1153.8,158.9 1160.9,181.0 1168.0,178.2" fill="none" stroke="#00a7a5" stroke-width="3" stroke-linejoin="round" stroke-linecap="round"/><polyline points="70.0,62.3 77.1,62.3 84.2,67.8 91.3,128.5 98.3,120.2 105.4,125.8 112.5,125.8 119.6,125.8 126.7,117.5 133.8,120.2 140.8,139.6 147.9,120.2 155.0,120.2 162.1,131.3 169.2,136.8 176.3,131.3 183.3,134.0 190.4,134.0 197.5,134.0 204.6,139.6 211.7,78.8 218.8,59.5 225.8,59.5 232.9,62.3 240.0,62.3 247.1,67.8 254.2,67.8 261.3,62.3 268.3,62.3 275.4,62.3 282.5,62.3 289.6,54.0 296.7,54.0 303.8,59.5 310.9,59.5 317.9,54.0 325.0,54.0 332.1,59.5 339.2,59.5 346.3,59.5 353.4,56.8 360.4,59.5 367.5,59.5 374.6,59.5 381.7,59.5 388.8,59.5 395.9,59.5 402.9,59.5 410.0,56.8 417.1,56.8 424.2,62.3 431.3,62.3 438.4,56.8 445.4,56.8 452.5,54.0 459.6,54.0 466.7,59.5 473.8,56.8 480.9,54.0 487.9,54.0 495.0,65.0 502.1,65.0 509.2,56.8 516.3,56.8 523.4,56.8 530.5,56.8 537.5,54.0 544.6,54.0 551.7,54.0 558.8,54.0 565.9,59.5 573.0,59.5 580.0,54.0 587.1,54.0 594.2,59.5 601.3,59.5 608.4,54.0 615.5,54.0 622.5,59.5 629.6,59.5 636.7,65.0 643.8,65.0 650.9,56.8 658.0,56.8 665.0,59.5 672.1,59.5 679.2,59.5 686.3,59.5 693.4,54.0 700.5,54.0 707.5,54.0 714.6,54.0 721.7,62.3 728.8,62.3 735.9,54.0 743.0,54.0 750.1,54.0 757.1,54.0 764.2,54.0 771.3,56.8 778.4,56.8 785.5,56.8 792.6,56.8 799.6,56.8 806.7,56.8 813.8,59.5 820.9,59.5 828.0,59.5 835.1,59.5 842.1,54.0 849.2,54.0 856.3,54.0 863.4,54.0 870.5,54.0 877.6,54.0 884.6,54.0 891.7,59.5 898.8,59.5 905.9,54.0 913.0,54.0 920.1,54.0 927.1,54.0 934.2,54.0 941.3,54.0 948.4,54.0 955.5,54.0 962.6,54.0 969.7,54.0 976.7,54.0 983.8,54.0 990.9,54.0 998.0,54.0 1005.1,54.0 1012.2,54.0 1019.2,54.0 1026.3,54.0 1033.4,54.0 1040.5,54.0 1047.6,54.0 1054.7,54.0 1061.7,54.0 1068.8,54.0 1075.9,54.0 1083.0,54.0 1090.1,54.0 1097.2,54.0 1104.2,54.0 1111.3,54.0 1118.4,54.0 1125.5,54.0 1132.6,54.0 1139.7,54.0 1146.7,56.8 1153.8,56.8 1160.9,54.0 1168.0,54.0" fill="none" stroke="#e6a700" stroke-width="3" stroke-linejoin="round" stroke-linecap="round"/><polyline points="133.8,330.0 140.8,54.0 147.9,54.0 155.0,54.0 162.1,54.0 169.2,54.0 176.3,54.0 183.3,54.0 190.4,54.0 197.5,54.0 204.6,54.0 211.7,54.0 218.8,54.0 225.8,54.0 232.9,54.0 240.0,54.0 247.1,54.0 254.2,54.0 261.3,54.0 268.3,54.0 275.4,54.0 282.5,54.0 289.6,54.0 296.7,54.0 303.8,54.0 310.9,54.0 317.9,54.0 325.0,54.0 332.1,54.0 339.2,54.0 346.3,54.0 353.4,54.0 360.4,54.0 367.5,54.0 374.6,54.0 381.7,54.0 388.8,54.0 395.9,54.0 402.9,54.0 410.0,54.0 417.1,54.0 424.2,54.0 431.3,54.0 438.4,54.0 445.4,54.0 452.5,54.0 459.6,54.0 466.7,54.0 473.8,54.0 480.9,54.0 487.9,54.0 495.0,54.0 502.1,54.0 509.2,54.0 516.3,54.0 523.4,54.0 530.5,54.0 537.5,54.0 544.6,54.0 551.7,54.0 558.8,54.0 565.9,54.0 573.0,54.0 580.0,54.0 587.1,54.0 594.2,54.0 601.3,54.0 608.4,54.0 615.5,54.0 622.5,54.0 629.6,54.0 636.7,54.0 643.8,54.0 650.9,54.0 658.0,54.0 665.0,54.0 672.1,54.0 679.2,54.0 686.3,54.0 693.4,54.0 700.5,54.0 707.5,54.0 714.6,54.0 721.7,54.0 728.8,54.0 735.9,54.0 743.0,54.0 750.1,54.0 757.1,54.0 764.2,54.0 771.3,54.0 778.4,54.0 785.5,54.0 792.6,54.0 799.6,54.0 806.7,54.0 813.8,54.0 820.9,54.0 828.0,54.0 835.1,54.0 842.1,54.0 849.2,54.0 856.3,54.0 863.4,54.0 870.5,54.0 877.6,54.0 884.6,54.0 891.7,54.0 898.8,54.0 905.9,54.0 913.0,54.0 920.1,54.0 927.1,54.0 934.2,54.0 941.3,54.0 948.4,54.0 955.5,54.0 962.6,54.0 969.7,54.0 976.7,54.0 983.8,54.0 990.9,54.0 998.0,54.0 1005.1,54.0 1012.2,54.0 1019.2,54.0 1026.3,54.0 1033.4,54.0 1040.5,54.0 1047.6,54.0 1054.7,54.0 1061.7,54.0 1068.8,54.0 1075.9,54.0 1083.0,54.0 1090.1,54.0 1097.2,54.0 1104.2,54.0 1111.3,54.0 1118.4,54.0 1125.5,54.0 1132.6,54.0 1139.7,54.0 1146.7,54.0 1153.8,54.0 1160.9,54.0 1168.0,54.0" fill="none" stroke="#d94f8a" stroke-width="3" stroke-linejoin="round" stroke-linecap="round"/><text x="70" y="358" text-anchor="middle" class="axis">base 7f3a2c0</text><text x="225.84516129032258" y="358" text-anchor="middle" class="axis">PR #14</text><text x="381.69032258064516" y="358" text-anchor="middle" class="axis">PR #31</text><text x="537.5354838709677" y="358" text-anchor="middle" class="axis">base 84b2ee7</text><text x="700.4645161290323" y="358" text-anchor="middle" class="axis">PR #58</text><text x="856.3096774193549" y="358" text-anchor="middle" class="axis">PR #84</text><text x="1012.1548387096774" y="358" text-anchor="middle" class="axis">base 7746931</text><text x="1168" y="358" text-anchor="middle" class="axis">PR #108</text><line x1="70" y1="396" x2="96" y2="396" stroke="#ff6b35" stroke-width="4"/><text x="106" y="401" class="legend">Correctness</text><line x1="619" y1="396" x2="645" y2="396" stroke="#7c5cff" stroke-width="4"/><text x="655" y="401" class="legend">Coverage and speed vs FlashAttention</text><line x1="70" y1="424" x2="96" y2="424" stroke="#00a7a5" stroke-width="4"/><text x="106" y="429" class="legend">FlashAttention API compatibility</text><line x1="619" y1="424" x2="645" y2="424" stroke="#e6a700" stroke-width="4"/><text x="655" y="429" class="legend">README documents every kernel and benchmark</text><line x1="70" y1="452" x2="96" y2="452" stroke="#d94f8a" stroke-width="4"/><text x="106" y="457" class="legend">vLLM drop-in compatibility</text>
</svg>
