<svg xmlns="http://www.w3.org/2000/svg" width="1200" height="504" viewBox="0 0 1200 504" role="img" aria-labelledby="title desc">
<title id="title">Burner evaluation progress</title><desc id="desc">Time series of evaluation scores recorded at each Burner merge.</desc>
<style>text{font-family:ui-sans-serif,system-ui,-apple-system,BlinkMacSystemFont,"Segoe UI",sans-serif}.title{font-size:22px;font-weight:700;fill:#20242a}.axis{font-size:12px;fill:#59636e}.legend{font-size:13px;fill:#2f3740}.grid{stroke:#d8dee5;stroke-width:1}.plot{fill:#fff;stroke:#b7c0ca}</style>
<rect width="100%" height="100%" fill="#f8fafc" rx="14"/><text x="70" y="32" class="title">Burner evaluation progress</text>
<rect x="70" y="54" width="1098" height="276" class="plot"/><line x1="70" y1="330" x2="1168" y2="330" class="grid"/><text x="58" y="335" text-anchor="end" class="axis">0</text><line x1="70" y1="261" x2="1168" y2="261" class="grid"/><text x="58" y="266" text-anchor="end" class="axis">25</text><line x1="70" y1="192" x2="1168" y2="192" class="grid"/><text x="58" y="197" text-anchor="end" class="axis">50</text><line x1="70" y1="123" x2="1168" y2="123" class="grid"/><text x="58" y="128" text-anchor="end" class="axis">75</text><line x1="70" y1="54" x2="1168" y2="54" class="grid"/><text x="58" y="59" text-anchor="end" class="axis">100</text><polyline points="70.0,54.0 124.9,54.0 179.8,54.0 234.7,54.0 289.6,54.0 344.5,54.0 399.4,54.0 454.3,54.0 509.2,54.0 564.1,54.0 619.0,54.0 673.9,54.0 728.8,54.0 783.7,54.0 838.6,54.0 893.5,54.0 948.4,54.0 1003.3,54.0 1058.2,54.0 1113.1,54.0 1168.0,54.0" fill="none" stroke="#ff6b35" stroke-width="3" stroke-linejoin="round" stroke-linecap="round"/><circle cx="70.0" cy="54.0" r="3.5" fill="#ff6b35"/><circle cx="124.9" cy="54.0" r="3.5" fill="#ff6b35"/><circle cx="179.8" cy="54.0" r="3.5" fill="#ff6b35"/><circle cx="234.7" cy="54.0" r="3.5" fill="#ff6b35"/><circle cx="289.6" cy="54.0" r="3.5" fill="#ff6b35"/><circle cx="344.5" cy="54.0" r="3.5" fill="#ff6b35"/><circle cx="399.4" cy="54.0" r="3.5" fill="#ff6b35"/><circle cx="454.3" cy="54.0" r="3.5" fill="#ff6b35"/><circle cx="509.2" cy="54.0" r="3.5" fill="#ff6b35"/><circle cx="564.1" cy="54.0" r="3.5" fill="#ff6b35"/><circle cx="619.0" cy="54.0" r="3.5" fill="#ff6b35"/><circle cx="673.9" cy="54.0" r="3.5" fill="#ff6b35"/><circle cx="728.8" cy="54.0" r="3.5" fill="#ff6b35"/><circle cx="783.7" cy="54.0" r="3.5" fill="#ff6b35"/><circle cx="838.6" cy="54.0" r="3.5" fill="#ff6b35"/><circle cx="893.5" cy="54.0" r="3.5" fill="#ff6b35"/><circle cx="948.4" cy="54.0" r="3.5" fill="#ff6b35"/><circle cx="1003.3" cy="54.0" r="3.5" fill="#ff6b35"/><circle cx="1058.2" cy="54.0" r="3.5" fill="#ff6b35"/><circle cx="1113.1" cy="54.0" r="3.5" fill="#ff6b35"/><circle cx="1168.0" cy="54.0" r="3.5" fill="#ff6b35"/><polyline points="70.0,222.4 124.9,214.1 179.8,214.1 234.7,172.7 289.6,172.7 344.5,161.6 399.4,161.6 454.3,161.6 509.2,156.1 564.1,197.5 619.0,197.5 673.9,197.5 728.8,186.5 783.7,183.7 838.6,183.7 893.5,192.0 948.4,172.7 1003.3,181.0 1058.2,172.7 1113.1,172.7 1168.0,169.9" fill="none" stroke="#7c5cff" stroke-width="3" stroke-linejoin="round" stroke-linecap="round"/><circle cx="70.0" cy="222.4" r="3.5" fill="#7c5cff"/><circle cx="124.9" cy="214.1" r="3.5" fill="#7c5cff"/><circle cx="179.8" cy="214.1" r="3.5" fill="#7c5cff"/><circle cx="234.7" cy="172.7" r="3.5" fill="#7c5cff"/><circle cx="289.6" cy="172.7" r="3.5" fill="#7c5cff"/><circle cx="344.5" cy="161.6" r="3.5" fill="#7c5cff"/><circle cx="399.4" cy="161.6" r="3.5" fill="#7c5cff"/><circle cx="454.3" cy="161.6" r="3.5" fill="#7c5cff"/><circle cx="509.2" cy="156.1" r="3.5" fill="#7c5cff"/><circle cx="564.1" cy="197.5" r="3.5" fill="#7c5cff"/><circle cx="619.0" cy="197.5" r="3.5" fill="#7c5cff"/><circle cx="673.9" cy="197.5" r="3.5" fill="#7c5cff"/><circle cx="728.8" cy="186.5" r="3.5" fill="#7c5cff"/><circle cx="783.7" cy="183.7" r="3.5" fill="#7c5cff"/><circle cx="838.6" cy="183.7" r="3.5" fill="#7c5cff"/><circle cx="893.5" cy="192.0" r="3.5" fill="#7c5cff"/><circle cx="948.4" cy="172.7" r="3.5" fill="#7c5cff"/><circle cx="1003.3" cy="181.0" r="3.5" fill="#7c5cff"/><circle cx="1058.2" cy="172.7" r="3.5" fill="#7c5cff"/><circle cx="1113.1" cy="172.7" r="3.5" fill="#7c5cff"/><circle cx="1168.0" cy="169.9" r="3.5" fill="#7c5cff"/><polyline points="70.0,225.1 124.9,211.3 179.8,241.7 234.7,236.2 289.6,225.1 344.5,205.8 399.4,219.6 454.3,208.6 509.2,186.5 564.1,197.5 619.0,197.5 673.9,214.1 728.8,214.1 783.7,197.5 838.6,197.5 893.5,203.0 948.4,197.5 1003.3,211.3 1058.2,211.3 1113.1,205.8 1168.0,205.8" fill="none" stroke="#00a7a5" stroke-width="3" stroke-linejoin="round" stroke-linecap="round"/><circle cx="70.0" cy="225.1" r="3.5" fill="#00a7a5"/><circle cx="124.9" cy="211.3" r="3.5" fill="#00a7a5"/><circle cx="179.8" cy="241.7" r="3.5" fill="#00a7a5"/><circle cx="234.7" cy="236.2" r="3.5" fill="#00a7a5"/><circle cx="289.6" cy="225.1" r="3.5" fill="#00a7a5"/><circle cx="344.5" cy="205.8" r="3.5" fill="#00a7a5"/><circle cx="399.4" cy="219.6" r="3.5" fill="#00a7a5"/><circle cx="454.3" cy="208.6" r="3.5" fill="#00a7a5"/><circle cx="509.2" cy="186.5" r="3.5" fill="#00a7a5"/><circle cx="564.1" cy="197.5" r="3.5" fill="#00a7a5"/><circle cx="619.0" cy="197.5" r="3.5" fill="#00a7a5"/><circle cx="673.9" cy="214.1" r="3.5" fill="#00a7a5"/><circle cx="728.8" cy="214.1" r="3.5" fill="#00a7a5"/><circle cx="783.7" cy="197.5" r="3.5" fill="#00a7a5"/><circle cx="838.6" cy="197.5" r="3.5" fill="#00a7a5"/><circle cx="893.5" cy="203.0" r="3.5" fill="#00a7a5"/><circle cx="948.4" cy="197.5" r="3.5" fill="#00a7a5"/><circle cx="1003.3" cy="211.3" r="3.5" fill="#00a7a5"/><circle cx="1058.2" cy="211.3" r="3.5" fill="#00a7a5"/><circle cx="1113.1" cy="205.8" r="3.5" fill="#00a7a5"/><circle cx="1168.0" cy="205.8" r="3.5" fill="#00a7a5"/><polyline points="70.0,62.3 124.9,62.3 179.8,67.8 234.7,128.5 289.6,120.2 344.5,125.8 399.4,125.8 454.3,125.8 509.2,117.5 564.1,120.2 619.0,139.6 673.9,120.2 728.8,120.2 783.7,131.3 838.6,136.8 893.5,131.3 948.4,134.0 1003.3,134.0 1058.2,134.0 1113.1,139.6 1168.0,78.8" fill="none" stroke="#e6a700" stroke-width="3" stroke-linejoin="round" stroke-linecap="round"/><circle cx="70.0" cy="62.3" r="3.5" fill="#e6a700"/><circle cx="124.9" cy="62.3" r="3.5" fill="#e6a700"/><circle cx="179.8" cy="67.8" r="3.5" fill="#e6a700"/><circle cx="234.7" cy="128.5" r="3.5" fill="#e6a700"/><circle cx="289.6" cy="120.2" r="3.5" fill="#e6a700"/><circle cx="344.5" cy="125.8" r="3.5" fill="#e6a700"/><circle cx="399.4" cy="125.8" r="3.5" fill="#e6a700"/><circle cx="454.3" cy="125.8" r="3.5" fill="#e6a700"/><circle cx="509.2" cy="117.5" r="3.5" fill="#e6a700"/><circle cx="564.1" cy="120.2" r="3.5" fill="#e6a700"/><circle cx="619.0" cy="139.6" r="3.5" fill="#e6a700"/><circle cx="673.9" cy="120.2" r="3.5" fill="#e6a700"/><circle cx="728.8" cy="120.2" r="3.5" fill="#e6a700"/><circle cx="783.7" cy="131.3" r="3.5" fill="#e6a700"/><circle cx="838.6" cy="136.8" r="3.5" fill="#e6a700"/><circle cx="893.5" cy="131.3" r="3.5" fill="#e6a700"/><circle cx="948.4" cy="134.0" r="3.5" fill="#e6a700"/><circle cx="1003.3" cy="134.0" r="3.5" fill="#e6a700"/><circle cx="1058.2" cy="134.0" r="3.5" fill="#e6a700"/><circle cx="1113.1" cy="139.6" r="3.5" fill="#e6a700"/><circle cx="1168.0" cy="78.8" r="3.5" fill="#e6a700"/><polyline points="564.1,330.0 619.0,54.0 673.9,54.0 728.8,54.0 783.7,54.0 838.6,54.0 893.5,54.0 948.4,54.0 1003.3,54.0 1058.2,54.0 1113.1,54.0 1168.0,54.0" fill="none" stroke="#d94f8a" stroke-width="3" stroke-linejoin="round" stroke-linecap="round"/><circle cx="564.1" cy="330.0" r="3.5" fill="#d94f8a"/><circle cx="619.0" cy="54.0" r="3.5" fill="#d94f8a"/><circle cx="673.9" cy="54.0" r="3.5" fill="#d94f8a"/><circle cx="728.8" cy="54.0" r="3.5" fill="#d94f8a"/><circle cx="783.7" cy="54.0" r="3.5" fill="#d94f8a"/><circle cx="838.6" cy="54.0" r="3.5" fill="#d94f8a"/><circle cx="893.5" cy="54.0" r="3.5" fill="#d94f8a"/><circle cx="948.4" cy="54.0" r="3.5" fill="#d94f8a"/><circle cx="1003.3" cy="54.0" r="3.5" fill="#d94f8a"/><circle cx="1058.2" cy="54.0" r="3.5" fill="#d94f8a"/><circle cx="1113.1" cy="54.0" r="3.5" fill="#d94f8a"/><circle cx="1168.0" cy="54.0" r="3.5" fill="#d94f8a"/><text x="70" y="358" text-anchor="middle" class="axis">base 7f3a2c0</text><text x="234.7" y="358" text-anchor="middle" class="axis">PR #2</text><text x="399.4" y="358" text-anchor="middle" class="axis">base a10d6c1</text><text x="564.1" y="358" text-anchor="middle" class="axis">base e7e2dc7</text><text x="673.9000000000001" y="358" text-anchor="middle" class="axis">base cada1f6</text><text x="838.5999999999999" y="358" text-anchor="middle" class="axis">PR #8</text><text x="1003.3" y="358" text-anchor="middle" class="axis">base b2fe553</text><text x="1168" y="358" text-anchor="middle" class="axis">PR #12</text><line x1="70" y1="396" x2="96" y2="396" stroke="#ff6b35" stroke-width="4"/><text x="106" y="401" class="legend">Correctness</text><line x1="619" y1="396" x2="645" y2="396" stroke="#7c5cff" stroke-width="4"/><text x="655" y="401" class="legend">Coverage and speed vs FlashAttention</text><line x1="70" y1="424" x2="96" y2="424" stroke="#00a7a5" stroke-width="4"/><text x="106" y="429" class="legend">FlashAttention API compatibility</text><line x1="619" y1="424" x2="645" y2="424" stroke="#e6a700" stroke-width="4"/><text x="655" y="429" class="legend">README documents every kernel and benchmark</text><line x1="70" y1="452" x2="96" y2="452" stroke="#d94f8a" stroke-width="4"/><text x="106" y="457" class="legend">vLLM drop-in compatibility</text>
</svg>
