<svg xmlns="http://www.w3.org/2000/svg" width="1200" height="504" viewBox="0 0 1200 504" role="img" aria-labelledby="title desc">
<title id="title">Burner evaluation progress</title><desc id="desc">Time series of evaluation scores recorded at each Burner merge.</desc>
<style>text{font-family:ui-sans-serif,system-ui,-apple-system,BlinkMacSystemFont,"Segoe UI",sans-serif}.title{font-size:22px;font-weight:700;fill:#20242a}.axis{font-size:12px;fill:#59636e}.legend{font-size:13px;fill:#2f3740}.grid{stroke:#d8dee5;stroke-width:1}.plot{fill:#fff;stroke:#b7c0ca}</style>
<rect width="100%" height="100%" fill="#f8fafc" rx="14"/><text x="70" y="32" class="title">Burner evaluation progress</text>
<rect x="70" y="54" width="1098" height="276" class="plot"/><line x1="70" y1="330" x2="1168" y2="330" class="grid"/><text x="58" y="335" text-anchor="end" class="axis">0</text><line x1="70" y1="261" x2="1168" y2="261" class="grid"/><text x="58" y="266" text-anchor="end" class="axis">25</text><line x1="70" y1="192" x2="1168" y2="192" class="grid"/><text x="58" y="197" text-anchor="end" class="axis">50</text><line x1="70" y1="123" x2="1168" y2="123" class="grid"/><text x="58" y="128" text-anchor="end" class="axis">75</text><line x1="70" y1="54" x2="1168" y2="54" class="grid"/><text x="58" y="59" text-anchor="end" class="axis">100</text><polyline points="70.0,54.0 73.8,54.0 77.5,54.0 81.3,54.0 85.0,54.0 88.8,54.0 92.6,54.0 96.3,54.0 100.1,54.0 103.8,54.0 107.6,54.0 111.4,54.0 115.1,54.0 118.9,54.0 122.6,54.0 126.4,54.0 130.2,54.0 133.9,54.0 137.7,54.0 141.4,54.0 145.2,54.0 149.0,54.0 152.7,54.0 156.5,54.0 160.2,54.0 164.0,54.0 167.8,54.0 171.5,54.0 175.3,54.0 179.0,54.0 182.8,54.0 186.6,54.0 190.3,54.0 194.1,54.0 197.8,54.0 201.6,54.0 205.4,54.0 209.1,54.0 212.9,54.0 216.7,54.0 220.4,54.0 224.2,54.0 227.9,54.0 231.7,54.0 235.5,54.0 239.2,54.0 243.0,54.0 246.7,54.0 250.5,54.0 254.3,54.0 258.0,54.0 261.8,54.0 265.5,54.0 269.3,54.0 273.1,54.0 276.8,54.0 280.6,54.0 284.3,54.0 288.1,54.0 291.9,54.0 295.6,54.0 299.4,54.0 303.1,54.0 306.9,54.0 310.7,54.0 314.4,54.0 318.2,54.0 321.9,54.0 325.7,54.0 329.5,54.0 333.2,54.0 337.0,54.0 340.7,54.0 344.5,54.0 348.3,54.0 352.0,54.0 355.8,54.0 359.5,54.0 363.3,54.0 367.1,54.0 370.8,54.0 374.6,54.0 378.3,54.0 382.1,54.0 385.9,54.0 389.6,54.0 393.4,54.0 397.1,54.0 400.9,54.0 404.7,54.0 408.4,54.0 412.2,54.0 415.9,54.0 419.7,54.0 423.5,54.0 427.2,54.0 431.0,54.0 434.7,54.0 438.5,54.0 442.3,54.0 446.0,54.0 449.8,54.0 453.5,54.0 457.3,54.0 461.1,54.0 464.8,54.0 468.6,54.0 472.3,54.0 476.1,54.0 479.9,54.0 483.6,54.0 487.4,54.0 491.2,54.0 494.9,54.0 498.7,54.0 502.4,54.0 506.2,54.0 510.0,54.0 513.7,54.0 517.5,54.0 521.2,54.0 525.0,54.0 528.8,54.0 532.5,54.0 536.3,54.0 540.0,54.0 543.8,54.0 547.6,54.0 551.3,54.0 555.1,54.0 558.8,54.0 562.6,54.0 566.4,54.0 570.1,54.0 573.9,54.0 577.6,54.0 581.4,54.0 585.2,54.0 588.9,54.0 592.7,54.0 596.4,54.0 600.2,54.0 604.0,54.0 607.7,54.0 611.5,54.0 615.2,54.0 619.0,54.0 622.8,54.0 626.5,54.0 630.3,54.0 634.0,54.0 637.8,54.0 641.6,54.0 645.3,54.0 649.1,54.0 652.8,54.0 656.6,54.0 660.4,54.0 664.1,54.0 667.9,54.0 671.6,54.0 675.4,54.0 679.2,54.0 682.9,54.0 686.7,54.0 690.4,54.0 694.2,54.0 698.0,54.0 701.7,54.0 705.5,54.0 709.2,54.0 713.0,54.0 716.8,54.0 720.5,54.0 724.3,54.0 728.0,54.0 731.8,54.0 735.6,54.0 739.3,54.0 743.1,54.0 746.8,54.0 750.6,54.0 754.4,54.0 758.1,54.0 761.9,54.0 765.7,54.0 769.4,54.0 773.2,54.0 776.9,54.0 780.7,54.0 784.5,54.0 788.2,54.0 792.0,54.0 795.7,54.0 799.5,54.0 803.3,54.0 807.0,54.0 810.8,54.0 814.5,54.0 818.3,54.0 822.1,54.0 825.8,54.0 829.6,54.0 833.3,54.0 837.1,54.0 840.9,54.0 844.6,54.0 848.4,54.0 852.1,54.0 855.9,54.0 859.7,54.0 863.4,54.0 867.2,54.0 870.9,54.0 874.7,54.0 878.5,54.0 882.2,54.0 886.0,54.0 889.7,54.0 893.5,54.0 897.3,54.0 901.0,54.0 904.8,54.0 908.5,54.0 912.3,54.0 916.1,54.0 919.8,54.0 923.6,54.0 927.3,54.0 931.1,54.0 934.9,54.0 938.6,54.0 942.4,54.0 946.1,54.0 949.9,54.0 953.7,54.0 957.4,54.0 961.2,54.0 964.9,54.0 968.7,54.0 972.5,54.0 976.2,54.0 980.0,54.0 983.7,54.0 987.5,54.0 991.3,54.0 995.0,54.0 998.8,54.0 1002.5,54.0 1006.3,54.0 1010.1,54.0 1013.8,54.0 1017.6,54.0 1021.3,54.0 1025.1,54.0 1028.9,54.0 1032.6,54.0 1036.4,54.0 1040.2,54.0 1043.9,54.0 1047.7,54.0 1051.4,54.0 1055.2,54.0 1059.0,54.0 1062.7,54.0 1066.5,54.0 1070.2,54.0 1074.0,54.0 1077.8,54.0 1081.5,54.0 1085.3,54.0 1089.0,54.0 1092.8,54.0 1096.6,54.0 1100.3,54.0 1104.1,54.0 1107.8,54.0 1111.6,54.0 1115.4,54.0 1119.1,54.0 1122.9,54.0 1126.6,54.0 1130.4,54.0 1134.2,54.0 1137.9,54.0 1141.7,54.0 1145.4,54.0 1149.2,54.0 1153.0,54.0 1156.7,54.0 1160.5,54.0 1164.2,54.0 1168.0,54.0" fill="none" stroke="#ff6b35" stroke-width="3" stroke-linejoin="round" stroke-linecap="round"/><polyline points="70.0,222.4 73.8,214.1 77.5,214.1 81.3,172.7 85.0,172.7 88.8,161.6 92.6,161.6 96.3,161.6 100.1,156.1 103.8,197.5 107.6,197.5 111.4,197.5 115.1,186.5 118.9,183.7 122.6,183.7 126.4,192.0 130.2,172.7 133.9,181.0 137.7,172.7 141.4,172.7 145.2,169.9 149.0,167.2 152.7,158.9 156.5,167.2 160.2,158.9 164.0,158.9 167.8,156.1 171.5,156.1 175.3,150.6 179.0,156.1 182.8,142.3 186.6,142.3 190.3,142.3 194.1,142.3 197.8,142.3 201.6,142.3 205.4,142.3 209.1,150.6 212.9,150.6 216.7,150.6 220.4,145.1 224.2,145.1 227.9,134.0 231.7,134.0 235.5,134.0 239.2,134.0 243.0,125.8 246.7,114.7 250.5,123.0 254.3,117.5 258.0,114.7 261.8,114.7 265.5,112.0 269.3,109.2 273.1,114.7 276.8,109.2 280.6,109.2 284.3,109.2 288.1,109.2 291.9,109.2 295.6,109.2 299.4,109.2 303.1,109.2 306.9,109.2 310.7,109.2 314.4,109.2 318.2,109.2 321.9,109.2 325.7,109.2 329.5,109.2 333.2,112.0 337.0,109.2 340.7,109.2 344.5,106.4 348.3,106.4 352.0,106.4 355.8,106.4 359.5,106.4 363.3,106.4 367.1,103.7 370.8,103.7 374.6,103.7 378.3,103.7 382.1,103.7 385.9,103.7 389.6,103.7 393.4,100.9 397.1,100.9 400.9,100.9 404.7,100.9 408.4,100.9 412.2,95.4 415.9,95.4 419.7,95.4 423.5,98.2 427.2,95.4 431.0,95.4 434.7,92.6 438.5,87.1 442.3,87.1 446.0,87.1 449.8,87.1 453.5,87.1 457.3,89.9 461.1,89.9 464.8,89.9 468.6,89.9 472.3,87.1 476.1,87.1 479.9,89.9 483.6,89.9 487.4,89.9 491.2,87.1 494.9,81.6 498.7,84.4 502.4,81.6 506.2,81.6 510.0,81.6 513.7,84.4 517.5,81.6 521.2,81.6 525.0,81.6 528.8,81.6 532.5,81.6 536.3,84.4 540.0,81.6 543.8,84.4 547.6,81.6 551.3,81.6 555.1,84.4 558.8,81.6 562.6,81.6 566.4,81.6 570.1,81.6 573.9,81.6 577.6,81.6 581.4,81.6 585.2,81.6 588.9,81.6 592.7,81.6 596.4,84.4 600.2,76.1 604.0,78.8 607.7,78.8 611.5,78.8 615.2,78.8 619.0,76.1 622.8,76.1 626.5,76.1 630.3,76.1 634.0,78.8 637.8,78.8 641.6,78.8 645.3,78.8 649.1,76.1 652.8,76.1 656.6,76.1 660.4,76.1 664.1,78.8 667.9,76.1 671.6,76.1 675.4,76.1 679.2,76.1 682.9,76.1 686.7,76.1 690.4,76.1 694.2,76.1 698.0,76.1 701.7,78.8 705.5,76.1 709.2,76.1 713.0,76.1 716.8,76.1 720.5,76.1 724.3,76.1 728.0,76.1 731.8,76.1 735.6,70.6 739.3,70.6 743.1,70.6 746.8,70.6 750.6,70.6 754.4,73.3 758.1,70.6 761.9,73.3 765.7,67.8 769.4,65.0 773.2,65.0 776.9,65.0 780.7,65.0 784.5,65.0 788.2,65.0 792.0,65.0 795.7,65.0 799.5,65.0 803.3,65.0 807.0,67.8 810.8,67.8 814.5,65.0 818.3,65.0 822.1,65.0 825.8,65.0 829.6,65.0 833.3,65.0 837.1,65.0 840.9,65.0 844.6,65.0 848.4,65.0 852.1,67.8 855.9,65.0 859.7,65.0 863.4,65.0 867.2,65.0 870.9,65.0 874.7,67.8 878.5,65.0 882.2,65.0 886.0,65.0 889.7,65.0 893.5,65.0 897.3,65.0 901.0,65.0 904.8,62.3 908.5,62.3 912.3,65.0 916.1,65.0 919.8,65.0 923.6,65.0 927.3,65.0 931.1,65.0 934.9,65.0 938.6,59.5 942.4,59.5 946.1,59.5 949.9,62.3 953.7,59.5 957.4,59.5 961.2,54.0 964.9,54.0 968.7,54.0 972.5,54.0 976.2,54.0 980.0,56.8 983.7,56.8 987.5,56.8 991.3,54.0 995.0,59.5 998.8,56.8 1002.5,56.8 1006.3,56.8 1010.1,56.8 1013.8,54.0 1017.6,54.0 1021.3,54.0 1025.1,56.8 1028.9,54.0 1032.6,54.0 1036.4,54.0 1040.2,54.0 1043.9,54.0 1047.7,54.0 1051.4,54.0 1055.2,54.0 1059.0,54.0 1062.7,54.0 1066.5,54.0 1070.2,54.0 1074.0,54.0 1077.8,54.0 1081.5,54.0 1085.3,54.0 1089.0,54.0 1092.8,54.0 1096.6,54.0 1100.3,54.0 1104.1,54.0 1107.8,54.0 1111.6,54.0 1115.4,54.0 1119.1,54.0 1122.9,54.0 1126.6,54.0 1130.4,54.0 1134.2,54.0 1137.9,54.0 1141.7,54.0 1145.4,54.0 1149.2,54.0 1153.0,54.0 1156.7,54.0 1160.5,54.0 1164.2,54.0 1168.0,54.0" fill="none" stroke="#7c5cff" stroke-width="3" stroke-linejoin="round" stroke-linecap="round"/><polyline points="70.0,225.1 73.8,211.3 77.5,241.7 81.3,236.2 85.0,225.1 88.8,205.8 92.6,219.6 96.3,208.6 100.1,186.5 103.8,197.5 107.6,197.5 111.4,214.1 115.1,214.1 118.9,197.5 122.6,197.5 126.4,203.0 130.2,197.5 133.9,211.3 137.7,211.3 141.4,205.8 145.2,205.8 149.0,197.5 152.7,192.0 156.5,208.6 160.2,208.6 164.0,197.5 167.8,197.5 171.5,205.8 175.3,197.5 179.0,203.0 182.8,203.0 186.6,203.0 190.3,200.3 194.1,181.0 197.8,175.4 201.6,197.5 205.4,192.0 209.1,203.0 212.9,200.3 216.7,186.5 220.4,164.4 224.2,181.0 227.9,181.0 231.7,178.2 235.5,147.8 239.2,169.9 243.0,169.9 246.7,169.9 250.5,169.9 254.3,164.4 258.0,175.4 261.8,175.4 265.5,156.1 269.3,156.1 273.1,161.6 276.8,161.6 280.6,169.9 284.3,164.4 288.1,175.4 291.9,169.9 295.6,169.9 299.4,169.9 303.1,153.4 306.9,150.6 310.7,169.9 314.4,164.4 318.2,158.9 321.9,156.1 325.7,169.9 329.5,164.4 333.2,169.9 337.0,167.2 340.7,158.9 344.5,158.9 348.3,169.9 352.0,164.4 355.8,164.4 359.5,164.4 363.3,169.9 367.1,169.9 370.8,164.4 374.6,161.6 378.3,169.9 382.1,167.2 385.9,175.4 389.6,167.2 393.4,161.6 397.1,161.6 400.9,169.9 404.7,167.2 408.4,169.9 412.2,169.9 415.9,169.9 419.7,164.4 423.5,158.9 427.2,158.9 431.0,156.1 434.7,172.7 438.5,172.7 442.3,178.2 446.0,178.2 449.8,169.9 453.5,167.2 457.3,169.9 461.1,167.2 464.8,164.4 468.6,161.6 472.3,169.9 476.1,167.2 479.9,158.9 483.6,156.1 487.4,156.1 491.2,169.9 494.9,167.2 498.7,158.9 502.4,153.4 506.2,169.9 510.0,167.2 513.7,147.8 517.5,145.1 521.2,169.9 525.0,167.2 528.8,153.4 532.5,150.6 536.3,153.4 540.0,153.4 543.8,169.9 547.6,167.2 551.3,164.4 555.1,161.6 558.8,158.9 562.6,175.4 566.4,172.7 570.1,169.9 573.9,167.2 577.6,158.9 581.4,156.1 585.2,169.9 588.9,167.2 592.7,164.4 596.4,164.4 600.2,164.4 604.0,156.1 607.7,153.4 611.5,169.9 615.2,167.2 619.0,153.4 622.8,150.6 626.5,145.1 630.3,142.3 634.0,169.9 637.8,167.2 641.6,158.9 645.3,158.9 649.1,181.0 652.8,178.2 656.6,169.9 660.4,167.2 664.1,175.4 667.9,172.7 671.6,169.9 675.4,167.2 679.2,169.9 682.9,167.2 686.7,169.9 690.4,167.2 694.2,169.9 698.0,167.2 701.7,175.4 705.5,172.7 709.2,161.6 713.0,161.6 716.8,169.9 720.5,167.2 724.3,161.6 728.0,158.9 731.8,153.4 735.6,153.4 739.3,169.9 743.1,167.2 746.8,161.6 750.6,158.9 754.4,158.9 758.1,156.1 761.9,153.4 765.7,153.4 769.4,161.6 773.2,161.6 776.9,161.6 780.7,158.9 784.5,169.9 788.2,167.2 792.0,142.3 795.7,139.6 799.5,147.8 803.3,145.1 807.0,153.4 810.8,150.6 814.5,161.6 818.3,158.9 822.1,161.6 825.8,158.9 829.6,156.1 833.3,153.4 837.1,156.1 840.9,153.4 844.6,169.9 848.4,167.2 852.1,167.2 855.9,164.4 859.7,158.9 863.4,156.1 867.2,161.6 870.9,158.9 874.7,161.6 878.5,158.9 882.2,167.2 886.0,164.4 889.7,169.9 893.5,167.2 897.3,169.9 901.0,167.2 904.8,153.4 908.5,150.6 912.3,161.6 916.1,158.9 919.8,153.4 923.6,150.6 927.3,169.9 931.1,167.2 934.9,158.9 938.6,158.9 942.4,169.9 946.1,167.2 949.9,161.6 953.7,158.9 957.4,156.1 961.2,156.1 964.9,161.6 968.7,158.9 972.5,158.9 976.2,156.1 980.0,161.6 983.7,158.9 987.5,161.6 991.3,158.9 995.0,153.4 998.8,150.6 1002.5,158.9 1006.3,158.9 1010.1,169.9 1013.8,169.9 1017.6,175.4 1021.3,172.7 1025.1,153.4 1028.9,150.6 1032.6,161.6 1036.4,158.9 1040.2,169.9 1043.9,167.2 1047.7,158.9 1051.4,156.1 1055.2,153.4 1059.0,156.1 1062.7,153.4 1066.5,150.6 1070.2,164.4 1074.0,161.6 1077.8,158.9 1081.5,142.3 1085.3,139.6 1089.0,142.3 1092.8,139.6 1096.6,142.3 1100.3,139.6 1104.1,142.3 1107.8,139.6 1111.6,169.9 1115.4,167.2 1119.1,158.9 1122.9,156.1 1126.6,161.6 1130.4,158.9 1134.2,169.9 1137.9,167.2 1141.7,164.4 1145.4,161.6 1149.2,167.2 1153.0,164.4 1156.7,150.6 1160.5,147.8 1164.2,158.9 1168.0,156.1" fill="none" stroke="#00a7a5" stroke-width="3" stroke-linejoin="round" stroke-linecap="round"/><polyline points="70.0,62.3 73.8,62.3 77.5,67.8 81.3,128.5 85.0,120.2 88.8,125.8 92.6,125.8 96.3,125.8 100.1,117.5 103.8,120.2 107.6,139.6 111.4,120.2 115.1,120.2 118.9,131.3 122.6,136.8 126.4,131.3 130.2,134.0 133.9,134.0 137.7,134.0 141.4,139.6 145.2,78.8 149.0,59.5 152.7,59.5 156.5,62.3 160.2,62.3 164.0,67.8 167.8,67.8 171.5,62.3 175.3,62.3 179.0,62.3 182.8,62.3 186.6,54.0 190.3,54.0 194.1,59.5 197.8,59.5 201.6,54.0 205.4,54.0 209.1,59.5 212.9,59.5 216.7,59.5 220.4,56.8 224.2,59.5 227.9,59.5 231.7,59.5 235.5,59.5 239.2,59.5 243.0,59.5 246.7,59.5 250.5,56.8 254.3,56.8 258.0,62.3 261.8,62.3 265.5,56.8 269.3,56.8 273.1,54.0 276.8,54.0 280.6,59.5 284.3,56.8 288.1,54.0 291.9,54.0 295.6,65.0 299.4,65.0 303.1,56.8 306.9,56.8 310.7,56.8 314.4,56.8 318.2,54.0 321.9,54.0 325.7,54.0 329.5,54.0 333.2,59.5 337.0,59.5 340.7,54.0 344.5,54.0 348.3,59.5 352.0,59.5 355.8,54.0 359.5,54.0 363.3,59.5 367.1,59.5 370.8,65.0 374.6,65.0 378.3,56.8 382.1,56.8 385.9,59.5 389.6,59.5 393.4,59.5 397.1,59.5 400.9,54.0 404.7,54.0 408.4,54.0 412.2,54.0 415.9,62.3 419.7,62.3 423.5,54.0 427.2,54.0 431.0,54.0 434.7,54.0 438.5,54.0 442.3,56.8 446.0,56.8 449.8,56.8 453.5,56.8 457.3,56.8 461.1,56.8 464.8,59.5 468.6,59.5 472.3,59.5 476.1,59.5 479.9,54.0 483.6,54.0 487.4,54.0 491.2,54.0 494.9,54.0 498.7,54.0 502.4,54.0 506.2,59.5 510.0,59.5 513.7,54.0 517.5,54.0 521.2,54.0 525.0,54.0 528.8,54.0 532.5,54.0 536.3,54.0 540.0,54.0 543.8,54.0 547.6,54.0 551.3,54.0 555.1,54.0 558.8,54.0 562.6,54.0 566.4,54.0 570.1,54.0 573.9,54.0 577.6,54.0 581.4,54.0 585.2,54.0 588.9,54.0 592.7,54.0 596.4,54.0 600.2,54.0 604.0,54.0 607.7,54.0 611.5,54.0 615.2,54.0 619.0,54.0 622.8,54.0 626.5,54.0 630.3,54.0 634.0,54.0 637.8,54.0 641.6,56.8 645.3,56.8 649.1,54.0 652.8,54.0 656.6,54.0 660.4,54.0 664.1,54.0 667.9,54.0 671.6,54.0 675.4,54.0 679.2,54.0 682.9,54.0 686.7,54.0 690.4,54.0 694.2,54.0 698.0,54.0 701.7,54.0 705.5,54.0 709.2,54.0 713.0,54.0 716.8,54.0 720.5,54.0 724.3,54.0 728.0,54.0 731.8,54.0 735.6,54.0 739.3,54.0 743.1,54.0 746.8,54.0 750.6,54.0 754.4,62.3 758.1,62.3 761.9,54.0 765.7,54.0 769.4,56.8 773.2,56.8 776.9,54.0 780.7,54.0 784.5,54.0 788.2,54.0 792.0,54.0 795.7,54.0 799.5,54.0 803.3,54.0 807.0,54.0 810.8,54.0 814.5,59.5 818.3,67.8 822.1,54.0 825.8,54.0 829.6,65.0 833.3,65.0 837.1,54.0 840.9,54.0 844.6,54.0 848.4,62.3 852.1,54.0 855.9,54.0 859.7,54.0 863.4,54.0 867.2,54.0 870.9,54.0 874.7,56.8 878.5,56.8 882.2,54.0 886.0,54.0 889.7,54.0 893.5,54.0 897.3,54.0 901.0,54.0 904.8,54.0 908.5,54.0 912.3,54.0 916.1,54.0 919.8,54.0 923.6,54.0 927.3,54.0 931.1,54.0 934.9,54.0 938.6,54.0 942.4,54.0 946.1,54.0 949.9,54.0 953.7,54.0 957.4,54.0 961.2,54.0 964.9,56.8 968.7,56.8 972.5,54.0 976.2,54.0 980.0,54.0 983.7,62.3 987.5,62.3 991.3,62.3 995.0,59.5 998.8,59.5 1002.5,54.0 1006.3,54.0 1010.1,54.0 1013.8,54.0 1017.6,54.0 1021.3,54.0 1025.1,54.0 1028.9,54.0 1032.6,54.0 1036.4,54.0 1040.2,54.0 1043.9,54.0 1047.7,54.0 1051.4,54.0 1055.2,54.0 1059.0,54.0 1062.7,54.0 1066.5,54.0 1070.2,54.0 1074.0,54.0 1077.8,54.0 1081.5,54.0 1085.3,54.0 1089.0,54.0 1092.8,54.0 1096.6,54.0 1100.3,54.0 1104.1,54.0 1107.8,54.0 1111.6,54.0 1115.4,54.0 1119.1,54.0 1122.9,54.0 1126.6,54.0 1130.4,54.0 1134.2,54.0 1137.9,54.0 1141.7,54.0 1145.4,54.0 1149.2,54.0 1153.0,54.0 1156.7,54.0 1160.5,54.0 1164.2,54.0 1168.0,62.3" fill="none" stroke="#e6a700" stroke-width="3" stroke-linejoin="round" stroke-linecap="round"/><polyline points="103.8,330.0 107.6,54.0 111.4,54.0 115.1,54.0 118.9,54.0 122.6,54.0 126.4,54.0 130.2,54.0 133.9,54.0 137.7,54.0 141.4,54.0 145.2,54.0 149.0,54.0 152.7,54.0 156.5,54.0 160.2,54.0 164.0,54.0 167.8,54.0 171.5,54.0 175.3,54.0 179.0,54.0 182.8,54.0 186.6,54.0 190.3,54.0 194.1,54.0 197.8,54.0 201.6,54.0 205.4,54.0 209.1,54.0 212.9,54.0 216.7,54.0 220.4,54.0 224.2,54.0 227.9,54.0 231.7,54.0 235.5,54.0 239.2,54.0 243.0,54.0 246.7,54.0 250.5,54.0 254.3,54.0 258.0,54.0 261.8,54.0 265.5,54.0 269.3,54.0 273.1,54.0 276.8,54.0 280.6,54.0 284.3,54.0 288.1,54.0 291.9,54.0 295.6,54.0 299.4,54.0 303.1,54.0 306.9,54.0 310.7,54.0 314.4,54.0 318.2,54.0 321.9,54.0 325.7,54.0 329.5,54.0 333.2,54.0 337.0,54.0 340.7,54.0 344.5,54.0 348.3,54.0 352.0,54.0 355.8,54.0 359.5,54.0 363.3,54.0 367.1,54.0 370.8,54.0 374.6,54.0 378.3,54.0 382.1,54.0 385.9,54.0 389.6,54.0 393.4,54.0 397.1,54.0 400.9,54.0 404.7,54.0 408.4,54.0 412.2,54.0 415.9,54.0 419.7,54.0 423.5,54.0 427.2,54.0 431.0,54.0 434.7,54.0 438.5,54.0 442.3,54.0 446.0,54.0 449.8,54.0 453.5,54.0 457.3,54.0 461.1,54.0 464.8,54.0 468.6,54.0 472.3,54.0 476.1,54.0 479.9,54.0 483.6,54.0 487.4,54.0 491.2,54.0 494.9,54.0 498.7,54.0 502.4,54.0 506.2,54.0 510.0,54.0 513.7,54.0 517.5,54.0 521.2,54.0 525.0,54.0 528.8,54.0 532.5,54.0 536.3,54.0 540.0,54.0 543.8,54.0 547.6,54.0 551.3,54.0 555.1,54.0 558.8,54.0 562.6,54.0 566.4,54.0 570.1,54.0 573.9,54.0 577.6,54.0 581.4,54.0 585.2,54.0 588.9,54.0 592.7,54.0 596.4,54.0 600.2,54.0 604.0,54.0 607.7,54.0 611.5,54.0 615.2,54.0 619.0,54.0 622.8,54.0 626.5,54.0 630.3,54.0 634.0,54.0 637.8,54.0 641.6,54.0 645.3,54.0 649.1,54.0 652.8,54.0 656.6,54.0 660.4,54.0 664.1,54.0 667.9,54.0 671.6,54.0 675.4,54.0 679.2,54.0 682.9,54.0 686.7,54.0 690.4,54.0 694.2,54.0 698.0,54.0 701.7,54.0 705.5,54.0 709.2,54.0 713.0,54.0 716.8,54.0 720.5,54.0 724.3,54.0 728.0,54.0 731.8,54.0 735.6,54.0 739.3,54.0 743.1,54.0 746.8,54.0 750.6,54.0 754.4,54.0 758.1,54.0 761.9,54.0 765.7,54.0 769.4,54.0 773.2,54.0 776.9,54.0 780.7,54.0 784.5,54.0 788.2,54.0 792.0,54.0 795.7,54.0 799.5,54.0 803.3,54.0 807.0,54.0 810.8,54.0 814.5,54.0 818.3,54.0 822.1,54.0 825.8,54.0 829.6,54.0 833.3,54.0 837.1,54.0 840.9,54.0 844.6,54.0 848.4,54.0 852.1,54.0 855.9,54.0 859.7,54.0 863.4,54.0 867.2,54.0 870.9,54.0 874.7,54.0 878.5,54.0 882.2,54.0 886.0,54.0 889.7,54.0 893.5,54.0 897.3,54.0 901.0,54.0 904.8,54.0 908.5,54.0 912.3,54.0 916.1,54.0 919.8,54.0 923.6,54.0 927.3,54.0 931.1,54.0 934.9,54.0 938.6,54.0 942.4,54.0 946.1,54.0 949.9,54.0 953.7,54.0 957.4,54.0 961.2,54.0 964.9,54.0 968.7,54.0 972.5,54.0 976.2,54.0 980.0,54.0 983.7,54.0 987.5,54.0 991.3,54.0 995.0,54.0 998.8,54.0 1002.5,54.0 1006.3,54.0 1010.1,54.0 1013.8,54.0 1017.6,54.0 1021.3,54.0 1025.1,54.0 1028.9,54.0 1032.6,54.0 1036.4,54.0 1040.2,54.0 1043.9,54.0 1047.7,54.0 1051.4,54.0 1055.2,54.0 1059.0,54.0 1062.7,54.0 1066.5,54.0 1070.2,54.0 1074.0,54.0 1077.8,54.0 1081.5,54.0 1085.3,54.0 1089.0,54.0 1092.8,54.0 1096.6,54.0 1100.3,54.0 1104.1,54.0 1107.8,54.0 1111.6,54.0 1115.4,54.0 1119.1,54.0 1122.9,54.0 1126.6,54.0 1130.4,54.0 1134.2,54.0 1137.9,54.0 1141.7,54.0 1145.4,54.0 1149.2,54.0 1153.0,54.0 1156.7,54.0 1160.5,54.0 1164.2,54.0 1168.0,54.0" fill="none" stroke="#d94f8a" stroke-width="3" stroke-linejoin="round" stroke-linecap="round"/><text x="70" y="358" text-anchor="middle" class="axis">base 7f3a2c0</text><text x="227.93150684931507" y="358" text-anchor="middle" class="axis">PR #27</text><text x="382.10273972602744" y="358" text-anchor="middle" class="axis">PR #55</text><text x="540.0342465753424" y="358" text-anchor="middle" class="axis">PR #91</text><text x="697.9657534246575" y="358" text-anchor="middle" class="axis">PR #114</text><text x="855.8972602739726" y="358" text-anchor="middle" class="axis">PR #139</text><text x="1010.068493150685" y="358" text-anchor="middle" class="axis">base 07c55d9</text><text x="1168" y="358" text-anchor="middle" class="axis">PR #190</text><line x1="70" y1="396" x2="96" y2="396" stroke="#ff6b35" stroke-width="4"/><text x="106" y="401" class="legend">Correctness</text><line x1="619" y1="396" x2="645" y2="396" stroke="#7c5cff" stroke-width="4"/><text x="655" y="401" class="legend">Coverage and speed vs FlashAttention</text><line x1="70" y1="424" x2="96" y2="424" stroke="#00a7a5" stroke-width="4"/><text x="106" y="429" class="legend">FlashAttention API compatibility</text><line x1="619" y1="424" x2="645" y2="424" stroke="#e6a700" stroke-width="4"/><text x="655" y="429" class="legend">README documents every kernel and benchmark</text><line x1="70" y1="452" x2="96" y2="452" stroke="#d94f8a" stroke-width="4"/><text x="106" y="457" class="legend">vLLM drop-in compatibility</text>
</svg>
