<svg xmlns="http://www.w3.org/2000/svg" width="1200" height="504" viewBox="0 0 1200 504" role="img" aria-labelledby="title desc">
<title id="title">Burner evaluation progress</title><desc id="desc">Time series of evaluation scores recorded at each Burner merge.</desc>
<style>text{font-family:ui-sans-serif,system-ui,-apple-system,BlinkMacSystemFont,"Segoe UI",sans-serif}.title{font-size:22px;font-weight:700;fill:#20242a}.axis{font-size:12px;fill:#59636e}.legend{font-size:13px;fill:#2f3740}.grid{stroke:#d8dee5;stroke-width:1}.plot{fill:#fff;stroke:#b7c0ca}</style>
<rect width="100%" height="100%" fill="#f8fafc" rx="14"/><text x="70" y="32" class="title">Burner evaluation progress</text>
<rect x="70" y="54" width="1098" height="276" class="plot"/><line x1="70" y1="330" x2="1168" y2="330" class="grid"/><text x="58" y="335" text-anchor="end" class="axis">0</text><line x1="70" y1="261" x2="1168" y2="261" class="grid"/><text x="58" y="266" text-anchor="end" class="axis">25</text><line x1="70" y1="192" x2="1168" y2="192" class="grid"/><text x="58" y="197" text-anchor="end" class="axis">50</text><line x1="70" y1="123" x2="1168" y2="123" class="grid"/><text x="58" y="128" text-anchor="end" class="axis">75</text><line x1="70" y1="54" x2="1168" y2="54" class="grid"/><text x="58" y="59" text-anchor="end" class="axis">100</text><polyline points="70.0,54.0 82.1,54.0 94.1,54.0 106.2,54.0 118.3,54.0 130.3,54.0 142.4,54.0 154.5,54.0 166.5,54.0 178.6,54.0 190.7,54.0 202.7,54.0 214.8,54.0 226.9,54.0 238.9,54.0 251.0,54.0 263.1,54.0 275.1,54.0 287.2,54.0 299.3,54.0 311.3,54.0 323.4,54.0 335.5,54.0 347.5,54.0 359.6,54.0 371.6,54.0 383.7,54.0 395.8,54.0 407.8,54.0 419.9,54.0 432.0,54.0 444.0,54.0 456.1,54.0 468.2,54.0 480.2,54.0 492.3,54.0 504.4,54.0 516.4,54.0 528.5,54.0 540.6,54.0 552.6,54.0 564.7,54.0 576.8,54.0 588.8,54.0 600.9,54.0 613.0,54.0 625.0,54.0 637.1,54.0 649.2,54.0 661.2,54.0 673.3,54.0 685.4,54.0 697.4,54.0 709.5,54.0 721.6,54.0 733.6,54.0 745.7,54.0 757.8,54.0 769.8,54.0 781.9,54.0 794.0,54.0 806.0,54.0 818.1,54.0 830.2,54.0 842.2,54.0 854.3,54.0 866.4,54.0 878.4,54.0 890.5,54.0 902.5,54.0 914.6,54.0 926.7,54.0 938.7,54.0 950.8,54.0 962.9,54.0 974.9,54.0 987.0,54.0 999.1,54.0 1011.1,54.0 1023.2,54.0 1035.3,54.0 1047.3,54.0 1059.4,54.0 1071.5,54.0 1083.5,54.0 1095.6,54.0 1107.7,54.0 1119.7,54.0 1131.8,54.0 1143.9,54.0 1155.9,54.0 1168.0,54.0" fill="none" stroke="#ff6b35" stroke-width="3" stroke-linejoin="round" stroke-linecap="round"/><polyline points="70.0,222.4 82.1,214.1 94.1,214.1 106.2,172.7 118.3,172.7 130.3,161.6 142.4,161.6 154.5,161.6 166.5,156.1 178.6,197.5 190.7,197.5 202.7,197.5 214.8,186.5 226.9,183.7 238.9,183.7 251.0,192.0 263.1,172.7 275.1,181.0 287.2,172.7 299.3,172.7 311.3,169.9 323.4,167.2 335.5,158.9 347.5,167.2 359.6,158.9 371.6,158.9 383.7,156.1 395.8,156.1 407.8,150.6 419.9,156.1 432.0,142.3 444.0,142.3 456.1,142.3 468.2,142.3 480.2,142.3 492.3,142.3 504.4,142.3 516.4,150.6 528.5,150.6 540.6,150.6 552.6,145.1 564.7,145.1 576.8,134.0 588.8,134.0 600.9,134.0 613.0,134.0 625.0,125.8 637.1,114.7 649.2,123.0 661.2,117.5 673.3,114.7 685.4,114.7 697.4,112.0 709.5,109.2 721.6,114.7 733.6,109.2 745.7,109.2 757.8,109.2 769.8,109.2 781.9,109.2 794.0,109.2 806.0,109.2 818.1,109.2 830.2,109.2 842.2,109.2 854.3,109.2 866.4,109.2 878.4,109.2 890.5,109.2 902.5,109.2 914.6,112.0 926.7,109.2 938.7,109.2 950.8,106.4 962.9,106.4 974.9,106.4 987.0,106.4 999.1,106.4 1011.1,106.4 1023.2,103.7 1035.3,103.7 1047.3,103.7 1059.4,103.7 1071.5,103.7 1083.5,103.7 1095.6,103.7 1107.7,100.9 1119.7,100.9 1131.8,100.9 1143.9,100.9 1155.9,100.9 1168.0,95.4" fill="none" stroke="#7c5cff" stroke-width="3" stroke-linejoin="round" stroke-linecap="round"/><polyline points="70.0,225.1 82.1,211.3 94.1,241.7 106.2,236.2 118.3,225.1 130.3,205.8 142.4,219.6 154.5,208.6 166.5,186.5 178.6,197.5 190.7,197.5 202.7,214.1 214.8,214.1 226.9,197.5 238.9,197.5 251.0,203.0 263.1,197.5 275.1,211.3 287.2,211.3 299.3,205.8 311.3,205.8 323.4,197.5 335.5,192.0 347.5,208.6 359.6,208.6 371.6,197.5 383.7,197.5 395.8,205.8 407.8,197.5 419.9,203.0 432.0,203.0 444.0,203.0 456.1,200.3 468.2,181.0 480.2,175.4 492.3,197.5 504.4,192.0 516.4,203.0 528.5,200.3 540.6,186.5 552.6,164.4 564.7,181.0 576.8,181.0 588.8,178.2 600.9,147.8 613.0,169.9 625.0,169.9 637.1,169.9 649.2,169.9 661.2,164.4 673.3,175.4 685.4,175.4 697.4,156.1 709.5,156.1 721.6,161.6 733.6,161.6 745.7,169.9 757.8,164.4 769.8,175.4 781.9,169.9 794.0,169.9 806.0,169.9 818.1,153.4 830.2,150.6 842.2,169.9 854.3,164.4 866.4,158.9 878.4,156.1 890.5,169.9 902.5,164.4 914.6,169.9 926.7,167.2 938.7,158.9 950.8,158.9 962.9,169.9 974.9,164.4 987.0,164.4 999.1,164.4 1011.1,169.9 1023.2,169.9 1035.3,164.4 1047.3,161.6 1059.4,169.9 1071.5,167.2 1083.5,175.4 1095.6,167.2 1107.7,161.6 1119.7,161.6 1131.8,169.9 1143.9,167.2 1155.9,169.9 1168.0,169.9" fill="none" stroke="#00a7a5" stroke-width="3" stroke-linejoin="round" stroke-linecap="round"/><polyline points="70.0,62.3 82.1,62.3 94.1,67.8 106.2,128.5 118.3,120.2 130.3,125.8 142.4,125.8 154.5,125.8 166.5,117.5 178.6,120.2 190.7,139.6 202.7,120.2 214.8,120.2 226.9,131.3 238.9,136.8 251.0,131.3 263.1,134.0 275.1,134.0 287.2,134.0 299.3,139.6 311.3,78.8 323.4,59.5 335.5,59.5 347.5,62.3 359.6,62.3 371.6,67.8 383.7,67.8 395.8,62.3 407.8,62.3 419.9,62.3 432.0,62.3 444.0,54.0 456.1,54.0 468.2,59.5 480.2,59.5 492.3,54.0 504.4,54.0 516.4,59.5 528.5,59.5 540.6,59.5 552.6,56.8 564.7,59.5 576.8,59.5 588.8,59.5 600.9,59.5 613.0,59.5 625.0,59.5 637.1,59.5 649.2,56.8 661.2,56.8 673.3,62.3 685.4,62.3 697.4,56.8 709.5,56.8 721.6,54.0 733.6,54.0 745.7,59.5 757.8,56.8 769.8,54.0 781.9,54.0 794.0,65.0 806.0,65.0 818.1,56.8 830.2,56.8 842.2,56.8 854.3,56.8 866.4,54.0 878.4,54.0 890.5,54.0 902.5,54.0 914.6,59.5 926.7,59.5 938.7,54.0 950.8,54.0 962.9,59.5 974.9,59.5 987.0,54.0 999.1,54.0 1011.1,59.5 1023.2,59.5 1035.3,65.0 1047.3,65.0 1059.4,56.8 1071.5,56.8 1083.5,59.5 1095.6,59.5 1107.7,59.5 1119.7,59.5 1131.8,54.0 1143.9,54.0 1155.9,54.0 1168.0,54.0" fill="none" stroke="#e6a700" stroke-width="3" stroke-linejoin="round" stroke-linecap="round"/><polyline points="178.6,330.0 190.7,54.0 202.7,54.0 214.8,54.0 226.9,54.0 238.9,54.0 251.0,54.0 263.1,54.0 275.1,54.0 287.2,54.0 299.3,54.0 311.3,54.0 323.4,54.0 335.5,54.0 347.5,54.0 359.6,54.0 371.6,54.0 383.7,54.0 395.8,54.0 407.8,54.0 419.9,54.0 432.0,54.0 444.0,54.0 456.1,54.0 468.2,54.0 480.2,54.0 492.3,54.0 504.4,54.0 516.4,54.0 528.5,54.0 540.6,54.0 552.6,54.0 564.7,54.0 576.8,54.0 588.8,54.0 600.9,54.0 613.0,54.0 625.0,54.0 637.1,54.0 649.2,54.0 661.2,54.0 673.3,54.0 685.4,54.0 697.4,54.0 709.5,54.0 721.6,54.0 733.6,54.0 745.7,54.0 757.8,54.0 769.8,54.0 781.9,54.0 794.0,54.0 806.0,54.0 818.1,54.0 830.2,54.0 842.2,54.0 854.3,54.0 866.4,54.0 878.4,54.0 890.5,54.0 902.5,54.0 914.6,54.0 926.7,54.0 938.7,54.0 950.8,54.0 962.9,54.0 974.9,54.0 987.0,54.0 999.1,54.0 1011.1,54.0 1023.2,54.0 1035.3,54.0 1047.3,54.0 1059.4,54.0 1071.5,54.0 1083.5,54.0 1095.6,54.0 1107.7,54.0 1119.7,54.0 1131.8,54.0 1143.9,54.0 1155.9,54.0 1168.0,54.0" fill="none" stroke="#d94f8a" stroke-width="3" stroke-linejoin="round" stroke-linecap="round"/><text x="70" y="358" text-anchor="middle" class="axis">base 7f3a2c0</text><text x="226.85714285714286" y="358" text-anchor="middle" class="axis">base 6442565</text><text x="383.7142857142857" y="358" text-anchor="middle" class="axis">PR #16</text><text x="540.5714285714286" y="358" text-anchor="middle" class="axis">base d2e6c36</text><text x="697.4285714285714" y="358" text-anchor="middle" class="axis">base f975f4c</text><text x="854.2857142857143" y="358" text-anchor="middle" class="axis">PR #43</text><text x="1011.1428571428571" y="358" text-anchor="middle" class="axis">base 52f765c</text><text x="1168" y="358" text-anchor="middle" class="axis">PR #59</text><line x1="70" y1="396" x2="96" y2="396" stroke="#ff6b35" stroke-width="4"/><text x="106" y="401" class="legend">Correctness</text><line x1="619" y1="396" x2="645" y2="396" stroke="#7c5cff" stroke-width="4"/><text x="655" y="401" class="legend">Coverage and speed vs FlashAttention</text><line x1="70" y1="424" x2="96" y2="424" stroke="#00a7a5" stroke-width="4"/><text x="106" y="429" class="legend">FlashAttention API compatibility</text><line x1="619" y1="424" x2="645" y2="424" stroke="#e6a700" stroke-width="4"/><text x="655" y="429" class="legend">README documents every kernel and benchmark</text><line x1="70" y1="452" x2="96" y2="452" stroke="#d94f8a" stroke-width="4"/><text x="106" y="457" class="legend">vLLM drop-in compatibility</text>
</svg>
